<?xml version="1.0" encoding="utf-8"?>
<!-- Generator: Adobe Illustrator 21.0.2, SVG Export Plug-In . SVG Version: 6.00 Build 0)  -->
<svg version="1.1" id="Layer_1" xmlns="http://www.w3.org/2000/svg" xmlns:xlink="http://www.w3.org/1999/xlink" x="0px" y="0px"
	 viewBox="0 0 500 500" style="enable-background:new 0 0 500 500;" xml:space="preserve">
<path d="M189,262.6c8.8-13.8,18-26,24.8-39.4c5.5-10.9,8.6-23.1,11.8-35c1.8-6.6,1.6-13.6,2.1-20.5c0.7-8.3,15.2-18.3,25.5-16.8
	c5.6,0.8,10.2,4,12.8,9.3c10.1,21.1,19.9,42.4,30.5,63.2c1.5,3,6.6,4.7,10.3,5.8c2.3,0.6,5.3-1.1,7.9-1.9
	c34.4-10.3,67.4-24.2,99.9-39.4c10-4.7,19.8-9.7,30-13.7c6.7-2.6,13.5-1.8,20.3,4.8c-7,24.8-19,47.8-37.2,67.1
	c-36.5,38.7-78.8,68.5-130.4,84.4c-39.5,12.2-79.5,22.5-119.9,31.2c-45.8,10-92,18-138.5,23.3c-4,0.5-8.1-0.3-12.1-0.7
	c-3.9-0.4-8.3-10.1-6.3-13.7c1.4-2.4,2.3-5.2,4.2-7c8.2-7.4,16.7-14.5,25-21.7c17.6-15.4,35.9-30.2,52.6-46.6
	c10.3-10.1,21.6-17.6,35.4-19.9C155.5,272.6,172.3,266.7,189,262.6z M113.9,350.1c7.9-1.2,18.9-2.6,29.7-4.7
	c21.7-4.2,43.4-8.2,64.9-13.1c37.7-8.6,75.2-17.9,111.2-32.5c37.2-15.1,65.1-40.9,86.6-74.2c1.1-1.8,0.9-5.8-0.4-7.3
	c-1.4-1.7-5.3-3.2-7.3-2.5c-23.4,8.2-46.5,17.3-70,25.3c-14.8,5.1-27.4,11.9-35.8,26.1c-9.5,16-24.2,25.7-42.3,31.3
	c-13.1,4-25.3,10.8-37.9,16.4c-5,2.2-9.8,5.4-15,6.6c-3.6,0.8-8.3-0.3-11.6-2.1c-3.8-2.1-4.5-6.5-2.7-10.8c1.5-3.9,3.3-7.6,4.6-11.6
	c1.2-3.6-2.9-8.6-6.5-8.6c-17.1-0.1-33.4,5.3-47.2,13.5c-15.2,9.1-27.5,23-37.4,38.2c-0.6,0.9-0.3,3,0.4,3.8c1.5,1.9,3.3,4,5.4,4.9
	C105.1,349.8,108.1,349.5,113.9,350.1z"/>
</svg>
