<?xml version="1.0" encoding="utf-8"?>
<!-- Generator: Adobe Illustrator 21.0.2, SVG Export Plug-In . SVG Version: 6.00 Build 0)  -->
<svg version="1.1" id="Layer_1" xmlns="http://www.w3.org/2000/svg" xmlns:xlink="http://www.w3.org/1999/xlink" x="0px" y="0px"
	 viewBox="0 0 500 500" style="enable-background:new 0 0 500 500;" xml:space="preserve">
<path d="M241.7,293.1c21.7,0.1,38.4-2.5,54.5-9.6c28.2-12.5,57.8-22,83.2-40.4c10.5-7.6,16.6-16.9,11.6-30.9
	c-1.7-4.6-1.9-10.3-1-15.2c0.9-4.8,3-10.3,6.4-13.5c17.7-16,38.2-22.4,61.8-15.4c19.7,5.9,25.9,24.8,12.8,40.1
	c-20.2,23.7-42.3,45.3-70.5,59.3c-39.9,19.9-79.7,40.1-122.2,54.4c-29.6,9.9-59.4,17.2-90.9,9.2c-4.9-1.3-10.2-1.1-15.3-1.8
	c-12.6-1.7-24,1.5-34.1,8.7c-14,10-27.1,21.2-43.5,27.1c-5.7,2-14-0.3-17.9-6.3c-1.6-2.6-2.7-6.9-1.7-9.5c1.9-4.6,4.8-9.3,8.5-12.4
	c16.8-13.5,11.2-20.6-3.2-31.1c-8.3-6.1-16-13-23.2-20.4c-11.1-11.3-18.2-24.6-18.2-41.2c0-10.3-2.2-20.5-2.6-30.8
	c-0.4-8.9,2.7-16.9,9.4-23.1c14.3-13.1,31.3-20.9,50.3-24.2c11.7-2.1,24.4,5.2,28.1,17.1c1.4,4.6,1.2,10.3-0.2,14.9
	c-1.5,4.7-4.9,9-8.3,12.8c-19.3,21.7-10.9,35,3.8,48.3c5.1,4.6,10.7,8.6,16.4,12.4c17.5,11.6,31.8,11.6,46.8-2.2
	c22.7-20.9,44.6-42.8,66.3-64.8c9.6-9.8,17.8-21,27.1-31.1c8.4-9.1,19.3-14.1,31.5-16.1c3.3-0.5,6.8,0.1,10.2,0.5
	c6.3,0.7,11.9,10.8,8.5,15.8c-4.8,7-9,14.8-15.1,20.5c-22.4,21.3-45.6,41.8-68.3,62.7c-7.6,6.9-14.9,14.1-22.2,21.4
	c-0.9,0.9-1.3,3.4-0.7,4.5c1.5,2.7,3.4,6.4,5.8,7.2C232.3,292,239.2,292.6,241.7,293.1z"/>
</svg>
