<?xml version="1.0" encoding="utf-8"?>
<!-- Generator: Adobe Illustrator 21.0.2, SVG Export Plug-In . SVG Version: 6.00 Build 0)  -->
<svg version="1.1" id="Layer_1" xmlns="http://www.w3.org/2000/svg" xmlns:xlink="http://www.w3.org/1999/xlink" x="0px" y="0px"
	 viewBox="0 0 500 500" style="enable-background:new 0 0 500 500;" xml:space="preserve">
<g>
	<g>
		<path d="M217.3,371.1c-20.4-0.9-40.8-2.3-61.2-2.7c-24.3-0.5-46.2-7.9-68.5-17.6c-28-12.2-37.8-30.6-34.8-60
			c2.2-21.9,0.3-44.1,8.5-65.4c4.4-11.5,10.6-20.8,19.9-28.9c21-18.5,45.8-29.5,72.4-36c50-12.2,100.8-16.1,152.1-10.5
			c23.7,2.6,47.1,7.1,69.1,17c21.7,9.8,43.7,18.8,65.1,29.2c20,9.7,30,25.7,30.6,48.9c0.6,23.4-6.4,42.6-20.8,61
			c-25.9,33-61,47.5-100.3,55.4C305.8,370.3,261.8,373.8,217.3,371.1z M256.9,336.5c19.8-0.8,47-1.7,74.2-2.9
			c37.1-1.6,64-20,83.5-50.8c12.1-19,7.5-46.5-10.5-59.3c-4.1-3-8.4-5.9-12.9-8.2c-72.9-36.6-149.2-44-228.2-25.1
			c-11.4,2.7-22.4,8.1-33,13.4c-14.6,7.3-23,19.8-25.4,36.1c-0.7,5-1.3,10.2-1,15.3c1,16.7-6,35.6,5.5,49.6
			c12,14.6,31.9,18.6,48.7,26.4c5.9,2.7,13.3,2.6,20.1,2.9C201.8,334.9,225.7,335.5,256.9,336.5z"/>
	</g>
	<path d="M260.9,309.8c-9.6-0.8-23.2-1.1-36.6-3.2c-15.2-2.4-26.2-17-26.9-32.7c-0.8-18.1,5.5-33.6,18.4-45.7
		c29.5-27.8,65.2-34.2,104-27.6c3.2,0.5,6.4,2.2,9.3,3.8c13.4,7.6,25,17.4,34.5,29.7c8.8,11.3,8.1,31.9-1.9,42.5
		c-19.4,20.6-42.6,33.2-71.5,33.2C281.7,309.9,273.3,309.8,260.9,309.8z M284.9,273.2c8.3-1.2,16.7-1.9,24.8-3.8
		c2.5-0.6,5.2-4.2,6-6.9c0.9-2.9,0.8-7.3-1-9.4c-9-10.9-21-16.7-35.1-17.8c-14-1.1-24.7,9.9-24.5,25.7c0,2.7,2.6,7.1,4.8,7.7
		C268.2,270.8,276.5,271.8,284.9,273.2z"/>
</g>
</svg>
