<?xml version="1.0" encoding="utf-8"?>
<!-- Generator: Adobe Illustrator 21.0.2, SVG Export Plug-In . SVG Version: 6.00 Build 0)  -->
<svg version="1.1" id="Layer_1" xmlns="http://www.w3.org/2000/svg" xmlns:xlink="http://www.w3.org/1999/xlink" x="0px" y="0px"
	 viewBox="0 0 500 500" style="enable-background:new 0 0 500 500;" xml:space="preserve">
<path d="M454,360.9c-11,4-21.6,10-32.8,11.4c-27,3.3-54.2,5.4-81.4,6.1c-17.5,0.5-34.4-4-49.9-13.8c-24.2-15.3-33.8-37-29.9-64.5
	c2.4-17.2,7.2-34.1,10.5-51.2c0.3-1.3-1.7-4-3.1-4.4c-3.4-0.9-7.5-2-10.4-0.7c-3.2,1.4-6.3,4.9-7.8,8.2c-3.9,8.8-7.2,18-10.4,27.2
	c-23.3,68.3-69.5,115.6-133.8,146.8c-14.7,7.1-29.6,9.3-45.3,7.1c-16.9-2.4-28-12.4-33.7-28.5c-1.6-4.6,4.1-13.3,8.7-12.4
	c9.4,1.9,18.9,3.8,28.1,6.3c24.4,6.6,45.9,1.3,65.9-13.8c37.2-28.3,59.5-66.1,71.4-110.7c2-7.6-4.6-16.7-12.1-16
	c-9.6,0.9-19.5,1.2-28.5,4.2c-12.9,4.2-25,10.6-37.6,15.9c-4.3,1.8-11.4-2.1-14-7.5c-2.1-4.5,0.2-12.5,4.9-15.3
	c8.3-5,16.3-10.9,25.2-14.3c16.4-6.1,33.3-10.6,50-15.8c15.3-4.8,19.5-16.5,12.7-32c-9.5-22-23.8-40-43.1-54.1
	c-14.1-10.3-28.5-20.3-42.4-31c-4.4-3.4-8.1-8.3-10.7-13.3c-1.6-3-1.8-7.9-0.6-11.2c4.4-11.7,24.8-20.5,34-15
	c33.8,20.2,63.3,45.9,86.6,77.2c11.3,15.2,16.8,34.8,24.9,52.5c4.1,8.8,13.7,13.7,24.1,12.6c12-1.3,23-5,30.6-14.8
	c11.9-15.4,23.1-31.3,35-46.7c16.6-21.7,35-41.9,57.5-57.7c5.9-4.2,14.1-5.6,21.5-6.8c2.7-0.4,6.4,3.1,9,5.5
	c0.8,0.7,0.2,4.2-0.8,5.5c-5.9,7.6-12.1,15-18.4,22.2c-16.6,19.1-33.7,37.7-49.9,57.1c-9.7,11.6-12.6,23.6,2.3,34.5
	c2,1.5,1.1,6.9,1.5,10.6c-3.5,1.7-6.8,4.2-10.5,4.9c-37.5,7.7-47.3,36.4-52.1,68.7c-2.7,18.1,9,39.3,25.6,49
	c17.5,10.3,36.4,13.6,56.2,11.4c19.3-2.1,38.5-5.4,57.7-8C445.9,345.3,447.8,347.3,454,360.9z"/>
</svg>
