<?xml version="1.0" encoding="utf-8"?>
<!-- Generator: Adobe Illustrator 21.0.2, SVG Export Plug-In . SVG Version: 6.00 Build 0)  -->
<svg version="1.1" id="Layer_1" xmlns="http://www.w3.org/2000/svg" xmlns:xlink="http://www.w3.org/1999/xlink" x="0px" y="0px"
	 viewBox="0 0 500 500" style="enable-background:new 0 0 500 500;" xml:space="preserve">
<g>
	<path d="M30.3,254.2c-5.4-3.8-9.4-6.3-13-9.2c-1-0.8-1.3-2.8-1.3-4.3c-0.1-2.6,1.3-4.6,3.7-5.4c8.5-2.7,16.9-3.3,25.2,1
		c6.9,3.7,13.4,2.3,20.1-1.5c15.2-8.4,31.2-15,47.5-21c20.2-7.5,41-11.2,62.3-12.7c3.9-0.3,7.9,0.2,11.7,1.2
		c3.1,0.8,5.3,3.4,5.5,6.8c0.1,1.3-0.8,3.4-1.8,3.7c-2.9,1-6,1.9-9.1,1.9c-26.6,0-51.4,6.7-75,18.6c-2.7,1.4-5.1,3.5-7.4,5.6
		c-1.5,1.4-1,2.8,0.7,4c4.1,2.9,8.9,3.1,13.6,3.2c18.1,0.5,36.3,0.6,54.4,1c4.7,0.1,9.4,0.4,14.1,1c1.2,0.2,2.2,1.9,3.1,3
		c1.1,1.4-1.3,4.9-3.4,5.3c-0.8,0.1-1.5,0.5-2.3,0.6c-1.6,0.2-3.1,0.4-4.7,0.5c-22.1,0.8-44.1,1.7-66.2,2.2
		c-11,0.2-22.1-0.6-33.1-0.8c-4.8-0.1-9.2,1.1-13.3,4.1c-5.7,4.2-11.6,8.2-17.7,11.8c-5.5,3.2-11.4,5.2-18,5
		c-3.1-0.1-6.4-1.8-7.5-4.6c-1.3-3.2-1.1-6.3,1-8.9C22.4,262.7,25.6,259.4,30.3,254.2z"/>
	<path d="M357.7,234c5.5,0,7.9-0.3,10.2,0.1c17.1,2.7,34.2,4.7,51.4,6.5c5.3,0.5,10.3,3.5,15.5,5.2c0.5,0.2,1.8-0.5,1.9-1
		c0.3-1.3,0.9-3.4,0.2-4c-4.4-4.5-9.2-8.5-13.5-13.1c-1.4-1.5-1.9-4.3-2-6.5c-0.1-2.3,0.6-4.6,3.2-5.6c7.8-3,15.9-3.9,22.1,2.3
		c8.9,8.8,19.6,12.6,31.5,14.2c3.8,0.5,7.6,1.9,11.2,3.3c1.1,0.4,2.3,2.3,2.3,3.5c0.1,1.3-0.8,3.1-1.8,4.1c-1.6,1.7-3.4,3.4-5.5,4.3
		c-17.4,7.2-34.9,14.2-52.4,21.2c-4.9,2-9.5,1.2-12.9-2.7c-5.5-6.5-12.8-8.7-20.8-9.7c-14.1-1.6-28.1-3.2-42.2-4.9
		c-3.1-0.4-6.3-0.7-9.1-1.9c-1.9-0.9-3.4-3.1-4.5-5.1c-1.1-2,1.6-6.8,4.2-7.5C351.6,235.2,356.2,234.4,357.7,234z"/>
	<path d="M230.3,249.4c-1.8-1.5-3.3-3.8-5.3-4.4c-5.2-1.5-10.7-2.2-16.1-3.4c-2.3-0.5-4.5-1.2-6.7-2c-1.8-0.6-4.4-5.6-4.1-8
		c0.3-2.9,2.9-6,5.6-6.8c7-2,14-2.1,20.9-0.3c17.5,4.6,35.2,7.9,53,10.5c3,0.5,6,1.9,8.8,3.2c2.1,1,3.9,2.4,4.5,5
		c0.6,2.6-1.2,6.5-3.8,7.9c-1.4,0.7-2.7,1.7-4.2,2.1c-23.3,6.9-46.5,13.8-69.8,20.6c-2.2,0.6-4.6,0.4-7,0.6
		c-2.9,0.1-6.3-2.4-7.1-5.1c-0.8-2.7,0.8-7,3.3-8c2.8-1.2,5.7-2.7,8.7-3.2C218,256.8,224.6,254.6,230.3,249.4z"/>
</g>
</svg>
