<?xml version="1.0" encoding="utf-8"?>
<!-- Generator: Adobe Illustrator 21.0.2, SVG Export Plug-In . SVG Version: 6.00 Build 0)  -->
<svg version="1.1" id="Layer_1" xmlns="http://www.w3.org/2000/svg" xmlns:xlink="http://www.w3.org/1999/xlink" x="0px" y="0px"
	 viewBox="0 0 500 500" style="enable-background:new 0 0 500 500;" xml:space="preserve">
<g>
	<path d="M245.9,266.6c-0.1,3.1-0.1,2,0,0.9c0.9-15.1,8.5-24,23.1-26.2c5.3-0.8,10.7-0.8,16.1-1.1c23.7-1.5,47.3-3.4,71-4.2
		c38.8-1.4,77.6-2.3,116.4-3.1c2.7-0.1,5.6,1.8,8.1,3.3c2.4,1.6-3.7,5.6-9.8,6.1c-3.2,0.2-6.5,0.3-9.7,0.4
		c-16.2,0.5-32.3,0.6-48.5,1.4c-14,0.7-27.9,2.1-41.9,3.3c-6.4,0.6-12.8,2-19.2,2.2c-17.3,0.5-34.1,5.2-51.2,6.7
		c-13.7,1.2-22.4,6-24.6,20.3c-0.9,5.7-6,8.8-10.8,11.2c-8.8,4.4-18.3-1.1-18.8-10.6C245.8,275.1,245.9,272.9,245.9,266.6z"/>
	<path d="M211.1,267.9c-0.5,1.4-1.4,5.7-3.7,9c-3.6,5.2-12.3,6.7-17.5,3.7c-2.8-1.6-5.5-3.5-7.8-5.7c-4.3-4-9.4-5.3-14.9-4.4
		c-14.9,2.5-29.7,5-44.4,8.3c-33.6,7.4-67.1,15.2-100.6,22.7c-2,0.5-4.4,0.5-6.4-0.1c-1.8-0.6-4-2.1-4.6-3.7
		c-0.6-1.5-0.1-4.5,1.1-5.5c2.3-2.1,5.3-4.2,8.2-4.7c54.3-8.5,107-24,160-38.3c3.1-0.8,6.3-1.6,9.4-2.3
		C206.3,243.4,211.1,247.5,211.1,267.9z"/>
	<path d="M296.1,214c-24.1-2.6-45.3,2.1-66.3,7.4c-5.2,1.3-10.5,2.2-15.8,3c-3.7,0.6-9.2-3.7-9.4-7.3c-0.7-12.9-1.6-25.9-1.7-38.8
		c0-2.7,2.5-6.1,4.9-7.9c3.4-2.6,7.6-4.2,11.6-5.8c7.5-3,15.4,1.6,16.9,9.8c0.7,4.3,0.7,8.6,1.4,12.9c1.2,8.1,5.4,12.2,12.9,11.2
		c17.5-2.5,34.5,1.2,51.6,3.9c4.2,0.7,8.1,2.8,12.1,4.5c2.2,0.9,2.8,3.1,1.7,5.4c-0.4,0.8-1.7,1.7-2.6,1.8
		C306.8,214.1,300.4,214,296.1,214z"/>
	<path d="M176.9,188c0,4.1,0,6.2,0,8.3c-0.1,6-3.2,11.1-8.2,12.8c-26.8,8.9-49,26.3-73.8,39c-1.5,0.7-3.9-0.1-5.8-0.7
		c-2.3-0.7-1.6-6.1,0.9-8.3c2.4-2.1,4.8-4.2,7.3-6.1c10.3-7.7,20.5-15.6,31.2-22.8c8.7-5.9,13.7-13.3,13.5-24c0-3.2,0.6-6.4,1.1-9.6
		c0.7-4.6,3.5-7.9,7.5-9.8c3.8-1.8,7.9-3.3,12-4.2c5.1-1.1,11.4,3.2,12.1,8.1C175.8,177.1,176.4,183.5,176.9,188z"/>
</g>
</svg>
