<?xml version="1.0" encoding="utf-8"?>
<!-- Generator: Adobe Illustrator 21.0.2, SVG Export Plug-In . SVG Version: 6.00 Build 0)  -->
<svg version="1.1" id="Layer_1" xmlns="http://www.w3.org/2000/svg" xmlns:xlink="http://www.w3.org/1999/xlink" x="0px" y="0px"
	 viewBox="0 0 500 500" style="enable-background:new 0 0 500 500;" xml:space="preserve">
<path d="M134.3,308.4c-3.3,6-6.3,12.4-10.1,18.2c-1.2,1.8-4.6,3.1-6.8,2.8c-2.1-0.3-5-2.5-5.7-4.6c-1.4-4.1-1.4-8.6-2.4-12.8
	c-0.3-1.3-2.3-3-3.7-3.2c-3.4-0.4-7-0.2-10.5,0c-22,1.2-43.9,2.6-65.9,3.8c-1.7,0.1-3.6-0.1-5.2-0.7c-2.5-0.9-4.8-2.1-5.7-4.9
	c-1-3.1,0.3-7.3,2.8-9.4c4.4-3.6,9.6-5.3,14.8-4.1c13.1,2.8,26.3,2.2,39.5,2.2c10.5,0,21.1-1.1,31.6-2.2c9.4-1,12.7-4.9,14.4-15.8
	c0.5-3.2-2.4-7.9-5.1-7.8c-14.9,0.7-29.9,1.2-44.8,2.3c-11.4,0.8-22.8,2.4-34.2,3.5c-5.1,0.5-9.4-2.9-9.6-6.9
	c-0.1-4.1,2.7-8.9,6.9-10.2c4.1-1.4,8.4-2.9,12.7-3c13.2-0.5,26.4-0.3,39.6-0.6c11.4-0.2,22.9-0.5,34.3-1.1c4.9-0.3,7.4-4.2,9.2-8.4
	c2.4-5.6-1-11.5-6.6-11.4c-3.5,0.1-7,0.1-10.5,0.5c-6.1,0.7-12.2,2.1-18.3,2.5c-17.7,0.9-35,3-51.8,9.1c-7,2.5-13.7-3-14.6-11
	c-0.4-3.6,3.3-10,6.5-10.5c6.1-1,12.2-1.9,18.3-2.2c24.6-1.3,49.3-2.3,73.9-3.5c0.9,0,1.7-0.2,2.6-0.3c6.5-0.7,10.2-4.5,11.8-12.1
	c0.7-3.2-2.4-7.9-5.3-7.9c-3.5,0-7-0.2-10.5,0.1c-25.4,2.2-50.9,4.6-76.3,6.7c-3.5,0.3-7-0.1-10.5-0.5c-3.4-0.3-7.2-7.7-5.2-10.6
	c1.9-2.7,4.5-5.8,7.4-6.8c4-1.4,8.7-1.1,13-1.2c19.4-0.2,38.8-0.3,58.1-0.5c3.5,0,7-0.3,10.6-0.4c11.5,0,22.6-2.9,33.9-4.5
	c11.2-1.6,22.8-0.4,34.2-0.7c2.5-0.1,5-1.3,7.8-2c4.3-6.6,8.4-13.2,12.9-19.7c0.8-1.1,3.1-1.8,4.6-1.6c1.5,0.2,3.6,1.4,4,2.6
	c1.2,3.2,1.6,6.8,2.4,10.1c1,4.4,3.2,6.4,6.9,6.6c3.5,0.2,7.1,0.6,10.5,0.3c7-0.8,13.9-2,20.8-3c3.4-0.5,7.3-2,10.3-1
	c8.9,3,17.4,1.2,26.1,0.1c7-0.9,14-1.2,21.1-1.8c26.3-2.5,52.6-4.4,78.5-10c4.1-0.9,8.6,0.2,12.9,0.5c0.7,0.1,1.9,1,1.9,1.5
	c-0.1,1.6-0.1,4-1.1,4.6c-3.7,2.3-7.5,5-11.6,5.7c-14.7,2.6-29.6,4.5-44.4,6.6c-5.2,0.8-10.5,1.3-15.7,2.3
	c-8,1.5-11.9,6.8-12.9,14.6c-0.2,1.7-0.3,3.5-0.4,5.2c-0.1,2,2.7,5.4,4.8,5.3c15.8-0.7,31.6-1.3,47.4-2.3c10.5-0.7,21-1.9,31.6-2.9
	c12.3-1.2,24.5-2.5,36.8-3.5c13.1-1.1,26.2-3.5,39.4-1.1c2.2,0.4,3.4,1.6,2.8,3.7c-0.4,1.5-1.2,3.1-2.4,4c-1.3,1-3.2,1.6-4.9,1.8
	c-8.7,1.2-17.4,2.6-26.2,3.3c-34.2,2.7-68.5,5-102.7,7.7c-7.9,0.6-15.7,2-23.5,3.4c-8.3,1.4-11.6,5.4-12.7,14.4
	c-0.4,3.1,2.7,7.7,5.4,7.8c5.3,0.1,10.6,0.6,15.8,0.1c33.3-3.1,66.6-6.5,99.9-9.8c3.5-0.4,6.9-1.2,10.4-1.7c1.7-0.2,3.5,0,5.2,0
	c1.9,0,5.4,3.9,4.7,5.5c-0.7,1.5-1.8,3.7-3,3.9c-12.1,2.2-24.2,4.9-36.4,6c-28.9,2.5-57.7,7.1-86.9,7.3c-2.6,0-5.3,0.3-7.9,0.7
	c-14.1,2.1-17.2,6.3-19.8,23.5c-0.2,1.2,1.6,3.3,3,4c2.3,1.2,5,2.1,7.5,2.2c11.4,0.1,22.9-0.1,34.3-0.3c15.9-0.3,31.7-0.1,47.4,2.8
	c2.3,0.4,4.8,4.4,3.6,6c-1,1.3-2.1,2.8-3.5,3.3c-2.4,0.9-5.1,1.5-7.7,1.5c-5.3,0-10.5-0.8-15.8-0.8c-21.1-0.4-42.3-0.6-63.4-1
	c-8.1-0.1-13.3,3.6-16,11.1c-0.6,1.7-1.3,3.3-2.1,4.9c-0.8,1.5-1.5,3.4-2.7,4.3c-1.2,0.9-3.1,1-4.7,1.1c-0.5,0-1.5-1.1-1.6-1.8
	c-0.5-3.4-0.9-6.9-1.3-10.3c-0.7-5.5-3.1-8-8.3-8.1c-5.3-0.1-10.6-0.3-15.8,0c-19.3,1.1-38.7,2.4-58,3.7c-2.6,0.2-5.4,0.3-7.8,1.3
	c-2.2,1-4.7,2.9-5.6,5c-2.1,4.8-3.2,10-4.8,15c-0.9,2.8-4.3,4.6-6.1,3.2c-1.3-1-3-2-3.5-3.4c-0.9-2.4-0.9-5.2-1.3-7.8
	c-1.4-8.3-4.7-11.5-11.6-10.8c-5.3,0.5-10.5,1.2-15.7,2.2C139.6,306.3,137.2,307.4,134.3,308.4z M281.8,212.4
	c6.9-0.8,13.9-1.3,20.8-2.6c5.4-1,9.4-4.4,10.7-10.2c0.6-2.6,1.3-5.1,1.8-7.7c0.4-2.3-1.8-6-3.6-6.2c-13.1-1.6-26.1-0.9-39,2
	c-2.3,0.5-4.6,2.8-6,4.8c-3,4.4-4.5,9.5-3.3,14.9c0.3,1.4,1.9,3.4,3.1,3.6C271.3,211.8,276.5,212,281.8,212.4z M272.3,247.8
	c7.7-0.9,14.7-1.5,21.5-2.8c2.4-0.4,5.3-1.9,6.6-3.9c2.9-4.4,5.3-9.5,3.3-14.7c-1.9-4.9-7.1-4.2-11.3-4c-8.7,0.4-17.4,1-26.1,2.1
	c-7,0.8-11.2,6.5-12.1,15c-0.3,3.1,2.9,7.4,5.7,7.7C264.3,247.5,268.7,247.6,272.3,247.8z M269.7,286.2c1.6-0.1,7.7-0.6,13.8-1.4
	c1.6-0.2,3.5-1.3,4.4-2.6c4.4-5.7,7.6-12.7,5.2-19.4c-2-5.7-8.9-3.9-14-3.9c-6.1,0-12.3,0.3-18.3,1c-2.5,0.3-5,1.5-7.2,2.7
	c-4.6,2.7-7.5,12.8-4.9,19.1c1.9,4.7,7,4.3,11.3,4.5C261.7,286.3,263.5,286.2,269.7,286.2z M147.3,292.4c6.5-0.4,12.6-0.6,18.5-1.4
	c2.4-0.3,5.2-1.7,6.6-3.6c4-5,5.1-11.1,2.4-17c-2.1-4.6-6.9-4.7-11.2-4.5c-6,0.4-12.1,0.9-18,2c-4.4,0.8-7.9,3.5-9.5,7.9
	c-1.2,3.2-2.1,6.5-2.9,9.9c-0.5,2.1,2.1,5.5,4.2,5.7C140.8,291.8,144.2,292.1,147.3,292.4z M207.8,288.6c5.9-0.4,10.3-0.6,14.7-1
	c1.7-0.2,3.4-0.9,5.1-1.2c3-0.5,4.7-2.8,5.4-5.1c1-3.3,1.2-6.8,1.3-10.3c0.1-3.6-3-7.4-6.1-7.3c-9.6,0.3-19.1,0.8-28.7,1.4
	c-1.5,0.1-3.1,1.4-4.5,2.4c-4.3,3.3-6.7,11.2-4.6,16.7c1.9,5.1,6.8,4.4,11.1,4.4C204.1,288.6,206.7,288.6,207.8,288.6z M170.1,230.2
	c0-0.1,0-0.2,0-0.3c-6.1,1-12.4,1.2-18.1,3.1c-5.6,1.9-6.6,7.8-7.6,13c-0.6,3.3,4.3,7.1,9.4,7.2c6.2,0,12.3-0.1,18.5-0.6
	c2.5-0.2,5-1.5,7.4-2.6c4.6-2.2,7-10.7,4.8-16.4c-0.9-2.4-5.1-4.3-9-4C173.6,229.7,171.8,230,170.1,230.2z M215.9,250.5
	c6.6-0.6,11.8-0.8,16.9-1.6c3.6-0.6,6-3.2,7.3-6.6c0.9-2.4,1.5-4.9,1.9-7.5c0.6-3.2-2.6-6.9-5.7-7.4c-9.5-1.5-19-0.7-28.4,0.8
	c-3.6,0.6-6.2,3.1-7.3,6.6c-0.9,3.3-1.5,6.7-1.6,10.1c0,1.3,1.6,3.4,2.8,3.7C207,249.6,212.2,250.1,215.9,250.5z M182,193.6
	c-4.8,0.5-8.3,0.8-11.8,1.1c-0.9,0.1-1.8,0.1-2.6,0.2c-8.1,1-12.3,6.5-13.1,16.8c-0.1,2.1,0.7,3.4,2.7,4c9.5,3,19.1,1.9,28.5-0.1
	c2.2-0.5,4.4-2.8,5.9-4.8c1.5-2.1,2.2-4.7,2.9-7.2c1.4-4.9-1.5-9.5-6-9.6C185.9,193.8,183.3,193.7,182,193.6z M226.1,214.1
	c4.6-0.5,10.7-0.8,16.6-2c2.1-0.4,4.7-2.9,5.3-5c1.3-4,1.6-8.4,1.7-12.7c0-1.2-2-3.5-3.2-3.6c-6.9-0.5-13.8-0.6-20.8-0.5
	c-9.1,0.1-14.1,5.4-16.9,13.6c-1.7,4.9,0.5,9.1,5.3,9.4C217.7,213.5,221.2,213.7,226.1,214.1z"/>
</svg>
