<?xml version="1.0" encoding="utf-8"?>
<!-- Generator: Adobe Illustrator 21.0.2, SVG Export Plug-In . SVG Version: 6.00 Build 0)  -->
<svg version="1.1" id="Layer_1" xmlns="http://www.w3.org/2000/svg" xmlns:xlink="http://www.w3.org/1999/xlink" x="0px" y="0px"
	 viewBox="0 0 500 500" style="enable-background:new 0 0 500 500;" xml:space="preserve">
<g>
	<path d="M217.8,258.8c-9.5,20.7-18.7,39.9-27.2,59.3c-12.6,28.5-31.8,51.4-57.4,68.9c-2.9,2-6.3,3.2-9.4,4.9
		c-5.8,3.3-15.2-1.9-16.2-8.6c-2-12.9-0.2-25.1,7.1-35.8c13.1-19.3,24-39.7,31.1-61.9c1.1-3.4,2.4-7,2.1-10.3
		c-0.3-3.3-1.6-7.9-4-9.2c-6.2-3.4-13.2-7.6-19.8-7.4c-26.5,0.6-41.4-17.5-57.6-33.6c-2-2-2.2-6.4-2.2-9.6
		c-0.1-4.6,6.2-9.3,11.6-8.8c12.4,1,24.8,2.4,37.2,3.6c14.2,1.3,28.3,3,42.5,3.6c11.8,0.5,21.9-5.6,25.1-16.4
		c7.7-26.2,22.8-48.2,36.8-70.9c5.7-9.3,14.6-15.4,26.1-16.6c7-0.7,18.1,2.8,18.8,7.2c0.8,5.1,1.7,11-0.1,15.6
		c-5.2,13.3-11.7,26-17.6,39c-3,6.5-5.9,13-8.5,19.6c-4.4,11.2,2.1,22.4,13.6,23.4c24.9,2.1,49.8,2.9,74.6-1.1
		c5.3-0.9,10.6-2.9,15.8-2.7c39.1,1.6,78.2,3.6,117.3,5.9c2.7,0.2,6.3,3.6,7.3,6.3c1,2.7-0.3,6.5-1.3,9.6c-0.5,1.5-2.4,2.6-3.9,3.6
		c-15.1,9.9-30,17.9-49.7,13.2c-13.6-3.2-28.4-3.2-42.5-2.3C319.3,250.3,271.5,254.5,217.8,258.8z"/>
	<path d="M313.2,173.2c-3.4-14.1,10.3-35.7,21.3-40c14.3-5.5,27.8-3,39.7,7.2c5.8,5,7.3,14.4,3,18.8c-12.5,13-27.7,21.8-44.4,28.1
		C326.3,189.9,313.9,180.9,313.2,173.2z"/>
	<path d="M112.3,158.3c-2.3-5.1-6.3-9.7-5.6-13.4c2.6-15.6,14.7-22.8,28.1-28.1c13.1-5.2,28.6,5.5,29.4,20.5
		c0.1,1.6-0.4,4.1-1.6,4.9C147.7,151.9,130.6,154.2,112.3,158.3z"/>
	<path d="M50.4,339.4c-1.4-3.8-5.2-8.9-4.3-12.7c5.7-22.7,32.1-30.9,49.8-16c3.6,3.1,3.7,12-0.2,13.6c-12.7,5.5-25.6,10.8-38.5,15.9
		C55.8,340.8,53.8,339.8,50.4,339.4z"/>
	<path d="M313.5,314.1c-0.5,1.4-0.5,3.4-1.5,4.3c-12,11.2-27.4,13.5-42.6,15.7c-1.5,0.2-5.9-5-5.4-6.9c5.9-23.7,29-32.2,47.1-17.6
		C312.3,310.5,312.7,312.5,313.5,314.1z"/>
</g>
</svg>
