<?xml version="1.0" encoding="utf-8"?>
<!-- Generator: Adobe Illustrator 21.0.2, SVG Export Plug-In . SVG Version: 6.00 Build 0)  -->
<svg version="1.1" id="Layer_1" xmlns="http://www.w3.org/2000/svg" xmlns:xlink="http://www.w3.org/1999/xlink" x="0px" y="0px"
	 viewBox="0 0 500 500" style="enable-background:new 0 0 500 500;" xml:space="preserve">
<g>
	<path d="M404,233.3c3.7,0.3,5.3,0.6,6.9,0.6c6.3,0.1,14.4,7.2,12.5,11.6c-1.8,4.2-4.8,8.1-8.1,11.2c-2.1,2-5.8,3.1-8.8,3.1
		c-44.3-0.7-84.8,14.7-125.2,29.8c-22.5,8.4-44.3,18.4-66.9,26.5c-7.1,2.5-15.7,1.6-23.5,1.2c-2.4-0.1-4.8-3.5-6.8-5.8
		c-2.6-3-0.7-10.6,2.9-12.8c6.8-4.1,13.3-9.4,20.7-11.7c53.4-16.8,106.8-33.4,160.5-49.1C380.2,234.4,393.4,234.6,404,233.3z"/>
	<path d="M148,267.6c-1.6,3.4-2.6,8.9-5.9,11.6c-9.8,8.1-19.7,16.8-31,22.2c-20.2,9.6-41.2,17.3-62.2,25c-7.5,2.8-15.9,3-23.3-0.8
		c-2.5-1.2-4.8-4.5-5.3-7.2c-0.5-2.6,0.7-6.8,2.6-8.2c5-3.7,10.6-6.8,16.3-9.3c13.1-5.7,27.8-7.7,38.7-18.2c3-2.9,3.4-10-0.5-12.3
		c-6.9-4-14.5-6.8-20.8-11.5c-3.2-2.4-6.1-8.4-5.3-11.9c0.9-3.8,5.8-7.5,9.8-9.5c4.1-2.1,9.2-2.6,14-3c23.1-2.1,44.3,4.3,64,15.9
		C144.6,253.8,147.3,259.8,148,267.6z"/>
	<path d="M147.5,202.8c-2.8-0.4-4.3-0.6-5.8-0.9c-11.1-1.9-19.9-10.4-18-17.5c2.2-8.5,8.7-12.5,16.5-14.2c6-1.3,12.3-1.5,18.5-1.7
		c8.6-0.3,15.9,5.6,16.3,12.9c0.5,9.8-6.3,19.6-14.8,20.8C155.6,202.7,150.9,202.6,147.5,202.8z"/>
	<path d="M479,187.9c-0.6,2.6-0.6,4.3-1.3,5.7c-6.6,14.2-27.6,21.2-39.5,13.3c-7-4.7-7.9-14.6-2.4-20.1c10-10.1,21.8-12.1,34.5-7.9
		C474,180,476.4,185.1,479,187.9z"/>
</g>
</svg>
