<?xml version="1.0" encoding="utf-8"?>
<!-- Generator: Adobe Illustrator 21.0.2, SVG Export Plug-In . SVG Version: 6.00 Build 0)  -->
<svg version="1.1" id="Layer_1" xmlns="http://www.w3.org/2000/svg" xmlns:xlink="http://www.w3.org/1999/xlink" x="0px" y="0px"
	 viewBox="0 0 500 500" style="enable-background:new 0 0 500 500;" xml:space="preserve">
<path d="M238,347c-35.1,0.5-67-9.9-96.5-28.2c-20-12.5-28.4-31.9-26.6-54.4c1.6-18.9,4.6-38.3,11-56.1c5.6-15.6,14.2-32.1,26.2-42.9
	c21.9-19.8,46.8-36.5,71.6-52.7c8.3-5.4,20.2-7,30.5-7.2c19.1-0.2,37.9-0.8,56.9-4c22.7-3.8,42.2,6.7,56,24
	c29.4,37,39.4,79.4,28.4,125.8c-5.6,23.7-19.3,42.5-38.8,56.7C321.5,333.8,281.8,347,238,347z M201.3,276.8
	c6.3-17.1,11.8-35.1,19.5-52c7.4-16.3,21.2-25.8,39.2-29.3c17.3-3.4,29.1,3.6,32.7,21c1.8,8.3,3,16.7,4.1,25.1
	c1.9,14.2-3.4,24.5-16.8,30.7c-7.7,3.6-15.1,7.9-22,12.8c-2.2,1.6-2.8,6-3.3,9.2c-0.1,0.7,3.3,2.4,5.3,2.8
	c50,8.9,81.9-32.6,75.4-77.1c-2.1-14.5-6.5-29.2-13.2-42.2c-6.8-13.3-18.8-23.4-35.2-24c-14.8-0.6-29.7-0.5-44.5,0.4
	c-6.1,0.4-12.7,2.3-17.9,5.5c-33.2,20.5-50.5,50.7-51.8,89.6c-0.2,5.9,2.4,12.7,5.8,17.7C183.7,274,191,278.6,201.3,276.8z"/>
</svg>
