<?xml version="1.0" encoding="utf-8"?>
<!-- Generator: Adobe Illustrator 21.0.2, SVG Export Plug-In . SVG Version: 6.00 Build 0)  -->
<svg version="1.1" id="Layer_1" xmlns="http://www.w3.org/2000/svg" xmlns:xlink="http://www.w3.org/1999/xlink" x="0px" y="0px"
	 viewBox="0 0 500 500" style="enable-background:new 0 0 500 500;" xml:space="preserve">
<g>
	<path d="M100.5,285c0.4-17.1-10.3-25.4-18.5-35.4c-30.4-37-26.6-77.1-8.7-117.7c3-6.8,8.9-13.7,15.3-17.2
		c30.3-16.5,61.6-28.5,97.1-15.6c24.3,8.9,49.2,16.4,75.6,25.2c15.7-5.5,32.4-13,49.9-17.1c29-6.8,56.8-2.9,82.4,14.3
		c23.9,16,48.8,30.1,61.2,58.5c8,18.4,8.7,35.5-3.3,51.7c-9.2,12.6-19.5,24.3-30.7,38c7.9,15.5,16.9,31.2,23.9,47.6
		c7.2,16.8,0.5,38-13,49.8c-20.4,17.8-44.3,28-70.7,30.6c-36.2,3.6-72.5,10-108.5-4.3c-8.8-3.5-20.5-1.6-30.5-0.2
		c-23.2,3.4-46.2,8.7-69.4,12c-23.5,3.4-47,1.6-69.8-5.5c-7.4-2.3-14.6-5.6-21.3-9.4c-24-13.5-28.1-48.7-7.5-67
		C69.5,309.8,85.8,297.1,100.5,285z M126.7,187.9c2.9,8.1,5.6,21,11.8,31.9c9.7,17.3,33.1,20.3,47,6.4c7.1-7.1,13.3-16.2,16.8-25.5
		c2.5-6.6,2.1-16.2-1-22.5c-10.1-20.1-26.4-31.7-50.2-29.9c-9.5,0.7-19.8,9.6-21.4,19.4C128.7,172.9,128.1,178,126.7,187.9z
		 M373,337.5c1.9-10-6.7-23.5-15.5-25.8c-21.7-5.8-44.8-6.8-63.4-22.6c-6.7-5.7-21.7,3.7-22.8,13.6c-0.8,7.2-1.2,16,2.1,21.9
		c17.1,30.2,53.2,41.9,86,27.8C365.6,349.7,369.4,341.6,373,337.5z M378.3,215.3c-0.3-5,0.4-10.4-1.2-14.9
		c-5.8-15.4-18.4-24.6-32.2-32.1c-16.7-9.1-33.6-4-46.6,13.9c-3.8,5.2-2.6,17.4,2,20.9c16.6,12.4,34.3,22.5,54.5,27.7
		C363.3,233.1,376.4,224.8,378.3,215.3z M154.6,360.6c8.2-1.2,15.8-2,23.2-3.3c14.3-2.5,21.7-12.9,19.3-26.9
		c-2.9-16.9-18.3-28.2-32.6-21.8c-13.5,6.1-26,14.6-38,23.3c-2.8,2-3.5,9.5-2.4,13.7c1.1,4,5.2,8.6,9.1,10.2
		C140.1,358.5,147.8,359.2,154.6,360.6z"/>
</g>
</svg>
