<?xml version="1.0" encoding="utf-8"?>
<!-- Generator: Adobe Illustrator 21.0.2, SVG Export Plug-In . SVG Version: 6.00 Build 0)  -->
<svg version="1.1" id="Layer_1" xmlns="http://www.w3.org/2000/svg" xmlns:xlink="http://www.w3.org/1999/xlink" x="0px" y="0px"
	 viewBox="0 0 500 500" style="enable-background:new 0 0 500 500;" xml:space="preserve">
<path d="M189.3,377.4c-22.8,0.6-45.1-0.8-66.7-9.4c-34.8-13.7-54.9-38.1-58.3-75.9c-5.1-55.5,19.6-98.5,57.4-135.4
	c7.8-7.6,18.7-13.5,29.2-16.5c25.3-7.2,51-14.1,77-17.5c18.4-2.4,37.5,0.6,56.2,2.3c11.2,1,22.1,5.7,33.3,6.1c38,1.4,68,20.7,97,42
	c22,16.1,26.8,39.4,16.4,65.5c-11.3,28.4-28.2,53.4-47.6,76.5c-17.4,20.7-40.7,33.1-66.1,41.7C275.6,371,232.8,376.6,189.3,377.4z
	 M104.6,256.6c0,6,0,7.9,0,9.8c-0.2,7,6.6,15.3,13.4,15.7c9.3,0.6,19.1-1,27.8,1.4c25.6,7.3,43.6-3.6,59.4-21.8
	c22.9-26.5,35.4-57.2,37.9-92c0.5-6.5-6.7-14.5-13.5-15.4c-25.1-3.2-48.8,1.9-71,12.8c-9.8,4.8-20.1,12.1-25.8,21.1
	C119,210.4,105.4,233.3,104.6,256.6z"/>
</svg>
