<?xml version="1.0" encoding="utf-8"?>
<!-- Generator: Adobe Illustrator 21.0.2, SVG Export Plug-In . SVG Version: 6.00 Build 0)  -->
<svg version="1.1" id="Layer_1" xmlns="http://www.w3.org/2000/svg" xmlns:xlink="http://www.w3.org/1999/xlink" x="0px" y="0px"
	 viewBox="0 0 500 500" style="enable-background:new 0 0 500 500;" xml:space="preserve">
<g>
	<path d="M83.6,380.9c-9.9,0.3-19.8,0.3-29.7-0.2c-3.1-0.2-6.7-1.7-9-3.7c-2.2-2-4.1-5.4-4.3-8.3c-0.6-11.9,13.5-19.4,10.4-32.2
		c-2.4-9.8-3.3-19.5-0.7-29.5c2.1-8,3-16.3,5.3-24.3c8.3-28.8,13-58.2,16-88c1-9.9,2.7-19.8,5.6-29.3c3-10.1,10.4-16.6,21.1-18.8
		c1.6-0.3,3.3-0.6,4.9-0.7c84.4-3.5,168.4-16.1,253.3-12.1c23.8,1.1,45.3,8.1,67.4,14.4c5.3,1.5,11.3,8.4,12.7,13.9
		c5.9,24.1,12,48.3,12.3,73.4c0.3,23.2,0.6,46.4,1.4,69.7c0.5,15.3-7.4,26-20,31.5c-15.1,6.6-30.9,11.4-47.8,12.5
		c-54.6,3.7-109.2,7.6-163.6,12.4c-26.4,2.3-52.6,6.6-78.9,10.6L83.6,380.9z M319,161.8c-3.3,0-6.6,0-9.9,0
		c-24.5-0.1-145,14-167.1,19.7c-8.6,2.2-14.9,8-17.3,16.2c-10,34.9-19.9,69.9-28.9,105.1c-2.4,9.4-2.1,19.6-2.6,29.4
		c-0.3,5.7,6.9,12.9,12.9,12.4c16.4-1.3,32.8-2.8,49.1-4.9c36-4.6,71.9-11.7,108-13.7c36.5-2,71.9-10.7,108.1-13.9
		c12.1-1.1,20.1-10.7,20.7-24c0.9-21.5,1.9-43,0.9-64.4c-0.7-14.7-4.5-29.3-7.6-43.8c-2.3-10.8-9.4-16.2-21.6-16.5L319,161.8z"/>
	<path d="M234.3,300.7c-14.9,0-29.8,0.3-44.6-0.2c-4.8-0.2-9.9-1.8-14.2-3.9c-12.6-6.3-21.3-15.9-22.1-30.6
		c-2-34.8,12.8-60.9,42.7-78.2c5.4-3.1,12.6-3.5,19.1-4.3c13.3-1.7,25.2,7.5,39,4.6c11.2-2.4,23-2.6,34.5-3.2
		c6.6-0.3,13.3,0.2,19.8,1.2c12.2,1.8,21.3,9.4,28.3,18.7c12.6,16.7,11,61.2-12.1,76.8c-14,9.4-28.5,16.9-45.6,18
		C278.9,299.7,234,301,234.3,300.7z M246.9,272.9c9.4-2.1,20.7-3.7,31.3-7.5c13.3-4.7,20-23.5,14.3-37.4
		c-3.4-8.3-10.7-12.1-18.9-13.8c-15-3.1-29.2,1.2-43.2,5.7c-12.5,4-17.6,13.5-18.9,25.9c-1.1,10.6,4.7,20.3,14.3,22.6
		C232,270.1,238.4,271.2,246.9,272.9z"/>
</g>
</svg>
