<?xml version="1.0" encoding="utf-8"?>
<!-- Generator: Adobe Illustrator 21.0.2, SVG Export Plug-In . SVG Version: 6.00 Build 0)  -->
<svg version="1.1" id="Layer_1" xmlns="http://www.w3.org/2000/svg" xmlns:xlink="http://www.w3.org/1999/xlink" x="0px" y="0px"
	 viewBox="0 0 500 500" style="enable-background:new 0 0 500 500;" xml:space="preserve">
<g>
	<path d="M223.5,320c0.8-2.7,2-12.1,6.5-19.7c23.1-39.5,50-76,87.5-103.4c24.5-17.9,51.4-26.3,82.1-20.9c16.1,2.8,32.5,4.1,48.7,6.4
		c7.3,1,13.9,4.1,18.6,10.1c15.8,20.1,22.2,26.7-1.4,50.8c-16.1,16.4-35.3,25.3-58,26.6c-12.7,0.7-25.5,0.1-38.2,0.6
		c-13.4,0.5-24.8,6.1-33.1,16.6c-7.8,10-15.7,20.2-21.6,31.3c-7.3,13.7-17,23.1-32,27.5c-8.7,2.6-16.7,7.2-25.4,9.7
		C237.2,361.6,220.3,346.9,223.5,320z"/>
	<path d="M108,243.4c2.9-27.7-7.8-49.3-32.9-62.7c-10-5.4-18.3-11.9-23.6-21.9c-1.5-2.8-2.2-7.6-0.7-9.9c1.5-2.3,6.6-4.2,9.2-3.4
		c6.9,2.1,13.7,5.1,19.7,9c6,4,11.4,9.2,16.4,14.4c8.8,9.3,16.5,19.5,25.7,28.4c26,25.3,32.3,55.9,25.7,90.3
		c-1.7,8.6-14.7,13.9-21.7,8.4c-13.4-10.5-24.8-21.9-19.5-41.3C107.2,251.4,107.4,247.7,108,243.4z"/>
	<path d="M161.9,344.8c-0.5,1.7-0.7,4.7-1.5,4.8c-12.1,2.2-24.3,4.1-36.5,5.9c-5.5,0.8-10.9-3.4-11.7-8.4c-1-6.1,1.9-10.7,6.2-14
		c14.6-11.4,29.6-9,42.2,6.6C161.5,341,161.4,343.1,161.9,344.8z"/>
</g>
</svg>
