<?xml version="1.0" encoding="utf-8"?>
<!-- Generator: Adobe Illustrator 21.0.2, SVG Export Plug-In . SVG Version: 6.00 Build 0)  -->
<svg version="1.1" id="Layer_1" xmlns="http://www.w3.org/2000/svg" xmlns:xlink="http://www.w3.org/1999/xlink" x="0px" y="0px"
	 viewBox="0 0 500 500" style="enable-background:new 0 0 500 500;" xml:space="preserve">
<path d="M188,307.1c-19.2,0.7-38.4,1.4-57.6,2.1c-17.6,0.6-34.4-3.4-50.8-9.2c-13.1-4.6-23.1-13.3-30.5-25.1c-4.4-7-4.1-21.6,1-27.3
	c3.8-4.3,7.4-9.2,12.1-12.1c14.7-8.9,29.3-18.5,45.2-25c50.1-20.5,102.4-32.2,156.5-36.7c46.2-3.8,92.1-3.8,138,2.8
	c15.5,2.2,29.8,6.7,43,15.1c9.6,6.1,12.1,21.9,4.9,30.1c-19.5,22-42.9,38.5-70.2,49c-43.2,16.6-87.2,29.9-134,31.7
	c-19.2,0.7-38.4,2.4-57.6,3.7C188,306.4,188,306.7,188,307.1z M183.3,234.6c-17.9-4.9-37-5.7-55.6-0.5c-8.7,2.4-16.3,9.5-23.9,15.1
	c-5.5,4.1-4.5,16.3,1.4,20.2c4.8,3.1,9.6,7.2,14.9,8.2c20.9,4,41.8,4.6,61.3-0.6C189.2,262.5,189,249.5,183.3,234.6z M389.6,218.4
	c1.3-4.1-0.1-7.1-4.5-8.8c-19.6-8-39.9-11.4-61-9.5c-5.1,0.5-10.4,7-8.7,11.9c3.5,10.8,6.5,21.9,11.5,32c2,4,9.6,8.6,13.4,7.7
	c18.7-4.3,35.7-12.4,47.9-28C389.2,222.4,389.2,220.2,389.6,218.4z"/>
</svg>
