<?xml version="1.0" encoding="utf-8"?>
<!-- Generator: Adobe Illustrator 21.0.2, SVG Export Plug-In . SVG Version: 6.00 Build 0)  -->
<svg version="1.1" id="Layer_1" xmlns="http://www.w3.org/2000/svg" xmlns:xlink="http://www.w3.org/1999/xlink" x="0px" y="0px"
	 viewBox="0 0 500 500" style="enable-background:new 0 0 500 500;" xml:space="preserve">
<path d="M232.3,300.5c-52.5,2.1-104.6-2.1-156.6-8.5c-13.4-1.7-25.1-6.2-34.8-16.1c-7.8-8.1-9.4-22-2.9-30.8
	c1.1-1.5,1.7-3.6,3.1-4.6c32.7-24.9,64.3-49.7,109.5-49.8c82.3-0.1,164.4,2.5,245.9,14.2c18.7,2.7,36,9.4,51.7,20.2
	c10.3,7.1,13.3,26.2,4.3,34.7c-6.7,6.4-13.9,12.6-22,16.8c-28.7,14.9-60,20.4-91.8,22.7c-20.5,1.5-41.1,1-61.6,1.2
	C262.2,300.6,247.2,300.5,232.3,300.5z M145,264.6c25,1.6,32.5-3.4,41.4-22c0.8-1.7,1.3-3.4,2-5.1c1.8-4.8-1.8-12.5-6.1-13.2
	c-16.4-2.5-33-5-48.4,3.2c-9.6,5.1-18.3,12.1-27.2,18.5c-1.3,0.9-2.6,3.7-2.1,4.8c1.2,2.7,3.1,6.7,5.3,7.2
	C124,261.1,138.5,263.4,145,264.6z M341.4,245.6c0.6,10,6.9,17.2,13.6,17.3c9.4,0.2,18.4-1.1,26.1-7.1c3.9-3,3.9-6.1,0.5-9.6
	c-8.4-8.6-18.8-12.1-30.2-9.4C347.2,237.8,344,243.2,341.4,245.6z"/>
</svg>
