<?xml version="1.0" encoding="utf-8"?>
<!-- Generator: Adobe Illustrator 21.0.2, SVG Export Plug-In . SVG Version: 6.00 Build 0)  -->
<svg version="1.1" id="Layer_1" xmlns="http://www.w3.org/2000/svg" xmlns:xlink="http://www.w3.org/1999/xlink" x="0px" y="0px"
	 viewBox="0 0 500 500" style="enable-background:new 0 0 500 500;" xml:space="preserve">
<path d="M240.2,385.7c-23.5,1.5-48.1,2.4-72.5,4.9c-26.3,2.8-52.4,5.3-78.9,1.2c-10.9-1.7-22.5,1-33.7,0.6c-2.8-0.1-6.4-4-7.8-7
	c-1.4-3-1.8-7.9-0.2-10.6c2.8-4.6,6.9-8.8,11.3-12.1c37.7-28.3,75.3-56.9,110-88.9c9.7-8.9,19.8-17.4,33-21.2
	c17.1-4.9,23.6-16.9,23.2-34.1c-0.1-5.4,1.8-11,3.1-16.4c1-4.2,10.4-5.7,14.5-3.4c14.2,7.8,17.7,24,28.1,34.8
	c2.9,3,11.9,4.9,15.6,2.7c4.9-2.8,10.1-5.3,14.5-8.7c34.4-26.5,68.1-53.9,97.6-85.9c12.8-13.9,25.5-27.9,39.2-40.8
	c5.1-4.8,12.8-7.2,19.8-9.3c2.7-0.8,7.4,1.7,9.7,4.1c2.2,2.3,4.3,7.5,3.1,9.7c-10.5,19.9-22.7,37.6-43.3,50.1
	c-19.1,11.5-34.4,29.2-51.9,43.6c-24.8,20.3-50.1,40-75,60.2c-7.7,6.2-8.5,17.2-1.9,25.1c7.3,8.6,14.7,17.1,23,24.7
	c11.6,10.7,25.1,16.5,41.4,11.6c3.6-1.1,7.4-1.9,11.1-2.1c17.5-1.2,32.3,9.4,37.8,27.6c0.9,3-0.3,8.1-2.5,10.3
	c-5.1,5.4-10.7,11.8-17.3,14.1c-16,5.5-32.5,9.6-49.1,12.8c-16.6,3.1-33.6,5.7-50.4,6.1C275,389.9,258.1,387.2,240.2,385.7z
	 M203.9,264.6c2,5.7,1.2,11.5-3.1,15.3c-21,18.7-42.5,36.8-63.5,55.6c-4,3.5-7.3,8.4-9.2,13.4c-1,2.6,0.8,8.2,3.1,9.6
	c4.5,2.8,10.3,5.2,15.5,5.1c48.7-0.6,97.5-1.7,146.2-3c3.4-0.1,7.6-1.8,9.9-4.2c2.2-2.2,4.3-8.1,3.2-9.3
	c-14.2-14.6-28.8-28.9-43.8-42.6c-2.2-2-7.1-1.1-10.8-1.5c-5.5,7.4-10.6,15.2-16.7,22c-2,2.2-6.8,3.1-10.1,2.7
	c-5.8-0.7-9.9-4.6-11.3-10.5c-0.8-3.6-2-7.7-0.9-10.9c5.6-16.1-3-28.9-8.5-42.1c6.6,3,13.1,6.4,19.9,9c4.6,1.7,11.5-2.7,12-8
	c0.3-3-1.2-7.5-3.4-9c-2.1-1.4-7.1-1-9.4,0.6C217.2,261.3,212.1,266.6,203.9,264.6z"/>
</svg>
