<?xml version="1.0" encoding="utf-8"?>
<!-- Generator: Adobe Illustrator 21.0.2, SVG Export Plug-In . SVG Version: 6.00 Build 0)  -->
<svg version="1.1" id="Layer_1" xmlns="http://www.w3.org/2000/svg" xmlns:xlink="http://www.w3.org/1999/xlink" x="0px" y="0px"
	 viewBox="0 0 500 500" style="enable-background:new 0 0 500 500;" xml:space="preserve">
<g>
	<path d="M207.4,328.3c-8.8-1-17.9-0.9-26.3-3.4c-6.7-2-12.8-6.7-18.7-10.9c-3.7-2.7-5.3-12.5-3.5-16.4c0.6-1.3,0.8-3.1,1.8-4
		c11.7-12.1,16.2-27.6,21.4-43c9.3-27.2,29.2-43.9,55.8-53c21.4-7.3,40.8-3.3,57.6,12c6.6,6.1,11.6,13.6,12.6,22.8
		c0.8,7.3,0.5,14.8,1.5,22.1c3.2,23.6-8.4,39.6-26.8,51.8C259.9,321.5,235.1,330,207.4,328.3z M224.4,292.9
		c5.6-0.5,11.4-0.6,17.2-1.5c9.5-1.6,15.9-7.6,18.3-16.7c1.8-6.9,3-14.5,2.4-21.6c-1-11.4-8.9-17.9-19.3-21.6
		c-6.1-2.2-17,3.9-21.2,12.3c-5.8,11.7-11,23.6-16.4,35.4c-1.3,2.8,2.8,9.6,5.9,10.4C215.6,290.8,219.8,291.8,224.4,292.9z"/>
	<path d="M468,136.3c-0.9,4.2-0.6,7.9-2.3,9.6c-7.4,7.2-15.2,14.1-23.1,20.7c-22.9,18.9-46.8,36.5-63.2,62.1
		c-5.8,9.1-15.4,13.6-26,15.7c-5.5,1.1-12.9-1.9-14.4-7.5c-1.1-3.9-1.7-9.9,0.4-12.4c8.6-10.1,17.5-20.2,27.9-28.5
		c25.5-20.4,51.8-39.8,78-59.3c3.4-2.5,8-4.6,12.1-4.7C461,131.8,464.6,134.8,468,136.3z"/>
	<path d="M128.3,315c-0.7,4.5-0.6,7.7-1.8,10.3c-2.4,5.4-5.4,11.8-11.6,12c-5.4,0.2-12.2-1.8-16.1-5.4c-5.3-4.8-8.5-12-12.6-18.1
		c-3.3-5-7-10.3-13.4-10.4c-4.1-0.1-8.3,2.5-12.5,3.7c-2.8,0.8-5.8,1.8-8.6,1.5c-2.6-0.3-6-1.6-7.3-3.6c-1.3-2-1.7-6.3-0.4-8
		c12.1-16,28.6-25.4,48-29.1c4.9-0.9,11.8,2.3,16,5.8C121.2,284.6,126.3,299.9,128.3,315z"/>
	<path d="M232.3,166.2c-11.3-1.6-19.3-7.9-22.2-18.8c-5.4-20-7.3-40.5-6.1-61.3c0.4-7.7,12.8-18.3,22.1-18.2c2.4,0,5.5,2.4,6.9,4.6
		c2.3,3.6,4.2,7.9,4.9,12.1c1.7,10.2,2.3,20.5,4,30.7C244.9,133.6,242.4,150.6,232.3,166.2z"/>
	<path d="M320.6,397.2c-0.4,3-0.3,9.2-2.5,14.5c-1.4,3.6-5.6,7.4-9.3,8.3c-3.6,0.9-8.7-0.9-11.9-3.2c-3.4-2.4-6.5-6.5-7.9-10.4
		c-5.5-15.3-10.7-30.8-15.2-46.5c-3.6-12.4,2.3-21.7,16.5-27.1c11.5-4.4,16.1-1,21.8,8.9c2.2,3.7,3.4,8.3,4,12.6
		C317.8,367.6,319,380.9,320.6,397.2z"/>
	<path d="M405.7,304.6c0.2,7.5-6.3,13.4-11.7,13c-1.5-0.1-3,0.4-4.4,0c-15.5-4.5-31.1-9-46.6-13.8c-6.2-1.9-8.5-13.6-4.6-19.3
		c8.8-12.9,31.5-21.5,47-10.2c7.4,5.4,13.6,11.5,17.7,19.5C405.1,297.6,405.2,302.3,405.7,304.6z"/>
	<path d="M205.3,379.2c0,1.4,0.6,3.4-0.1,4.2c-12,14.8-24.2,29.4-36.4,44c-3.7,4.4-11.4,5.8-16.1,3.2c-6.1-3.2-9.3-12.3-6.1-19
		c2.4-5.3,4.6-11.3,8.7-15.1c8.6-7.9,17.8-15.3,27.8-21.4c4.4-2.7,11.2-2.1,16.9-1.8C201.8,373.5,203.5,377.2,205.3,379.2z"/>
	<path d="M138.3,241.2c-4.3-3.9-8.1-9.7-13.2-11.4c-14.5-4.8-20.1-16.7-26.3-28.6c-3.6-6.9-1.3-15.6,5-19.6
		c6.7-4.3,14.7-3.9,20.7,0.8c8.6,6.8,14.2,15.4,14.1,26.5c0,10.4-1.2,20.7-1.8,31.1L138.3,241.2z"/>
</g>
</svg>
