<?xml version="1.0" encoding="utf-8"?>
<!-- Generator: Adobe Illustrator 21.0.2, SVG Export Plug-In . SVG Version: 6.00 Build 0)  -->
<svg version="1.1" id="Layer_1" xmlns="http://www.w3.org/2000/svg" xmlns:xlink="http://www.w3.org/1999/xlink" x="0px" y="0px"
	 viewBox="0 0 500 500" style="enable-background:new 0 0 500 500;" xml:space="preserve">
<g>
	<path d="M411,360.6c5.4,0.3,19.8-5.7,33.8,0.8c1,0.5,1.5,2.7,1.6,4.1c0.2,1.7,0.3,4.2-0.6,5.1c-2.7,2.2-5.8,5-9,5.4
		c-26.8,2.9-53.7,6.8-80.6,7.4c-15.9,0.4-32.5-2.8-47.7-7.6c-20-6.4-33.8-20.3-36-42.8c-0.9-8.9-1.1-18-1.9-26.9
		c-0.9-8.9-11.2-13.7-20.4-9.1c-4.7,2.4-9.6,5.3-13,9.3c-3.4,4-5.9,9.2-7.2,14.4c-7,28.4-25.8,46.8-50,60.8
		c-42.8,24.7-88.8,38.4-138.4,39.2c-2.3,0-6.2-4-6.4-6.5c-0.3-2.6,2.2-6.6,4.6-8.2c2.8-1.8,6.8-1.8,10.3-2.4
		c26.7-4.3,52.4-12.3,78.1-20.7c15.7-5.1,29.6-13,42.4-23.1c10.1-8,16.8-18.5,20.5-31.1c1.9-6.6-3-15.8-9.4-16
		c-7.2-0.2-14.4-0.2-21.5-0.2c-9,0-18,0.7-26.9,0c-2.6-0.2-5.7-3.3-7.2-5.9c-2.3-3.9-0.6-7.5,3.8-8.6c17.3-4.4,34.7-8.4,52-12.9
		c6.6-1.7,10.1-10.8,7.2-17.7c-2-5-3.4-10.4-6.4-14.7c-8.3-11.7-17.1-23.1-26.1-34.3c-6.8-8.4-14.5-16-21.1-24.5
		c-3.3-4.3-4-10.1-0.4-15c4.2-5.7,13.5-8.7,19.1-5.8c6.4,3.2,13,6.2,18.5,10.6c21.6,17.1,37,39,48.2,64.1c2.9,6.6,5.9,13.2,9.8,19.2
		c1.7,2.6,5.7,4.9,9,5.3c24.7,3.1,45.5-1.2,60.6-24.6c15.6-24.1,33.9-46.5,51.5-69.3c5.5-7.1,12.9-12.8,22.4-13.6
		c3.1-0.3,7.5,1.2,9.5,3.5c1.7,1.9,2.2,7.2,0.8,9.2c-10.6,14.5-22.2,28.3-32.8,42.8c-4.2,5.7-6.9,12.4-10.2,18.7
		c-2,4,3.9,10.7,8.9,10.5c23.6-1.2,45.7-9,68.2-15c13.9-3.7,27.8-7.4,42.3-3.6c1.6,0.4,4.3,2.4,4.2,2.7c-1.2,3.2-2.3,6.9-4.7,9.1
		c-2.4,2.3-6.1,3.7-9.5,4.5c-17.5,4.2-35.1,7.7-52.5,12.2c-22.6,5.8-45.3,11.8-67.6,18.5c-17.8,5.4-27,21-26.2,41.9
		c0.6,15.9,12.2,32.1,28.2,35.7c13.9,3.1,28.4,4,42.7,5.1C384.2,361.2,393.2,360.6,411,360.6z"/>
	<path d="M325.2,94.1c0,13.5,0.2,17.1,0,20.6c-1.7,29.9-26.7,49.9-58.5,46.9c-11.9-1.1-23.9-12.2-24.9-24
		c-0.9-10.5-0.7-21.2-0.9-31.8C240.4,87,252.2,77.1,267.4,70c3.2-1.5,6.7-2.4,10.1-3C315.3,60.5,324.3,73.1,325.2,94.1z"/>
</g>
</svg>
