<?xml version="1.0" encoding="utf-8"?>
<!-- Generator: Adobe Illustrator 21.0.2, SVG Export Plug-In . SVG Version: 6.00 Build 0)  -->
<svg version="1.1" id="Layer_1" xmlns="http://www.w3.org/2000/svg" xmlns:xlink="http://www.w3.org/1999/xlink" x="0px" y="0px"
	 viewBox="0 0 500 500" style="enable-background:new 0 0 500 500;" xml:space="preserve">
<g>
	<path d="M490,178.8c-1.2,3.4-1.4,6.5-3,8.4c-8.9,10-20.3,14-33.9,11.8c-5.1-0.9-10.4-5.4-11.7-10.4c-1.3-4.8,1.4-11.2,5.8-14.2
		c11.2-7.8,23.4-9.1,35.8-4.1C486.1,171.6,487.9,176.2,490,178.8z"/>
	<path d="M199.2,255.3c-0.1,1.3,0.1,2.9-0.5,4c-6.7,13.2-23.7,18.8-36,11.6c-2.3-1.3-4.2-3.9-5.2-6.4c-1-2.4-1.8-6-0.7-7.8
		c8.2-12.5,25-16,37.3-8.1C196.3,250.2,197.5,253.1,199.2,255.3z"/>
	<path d="M319.4,314.6c0.4,6.1-1.8,11.1-6.1,14.8c-5.5,4.8-12.5,6.5-19.5,5.8c-3.6-0.4-8.3-3-9.8-5.9c-1.6-3.1-1.1-8.2,0.4-11.6
		c3.6-8,10.9-11.9,19.5-13.6C310.2,302.9,318.6,308.7,319.4,314.6z"/>
	<path d="M177.3,318.9c-1.2,3.2-1.5,8.5-4.2,10.4c-5.6,3.9-12.3,7-19,8.5c-5.9,1.3-10.9-2.7-13.6-8c-1.1-2.3-1.9-5.8-0.9-7.9
		c5.1-11.1,21.3-16.2,32.7-10.4C174.4,312.6,175.3,315.8,177.3,318.9z"/>
	<path d="M212.3,204.1c-0.8,3.6-0.6,6.9-2.2,8.6c-8.3,8.6-18.4,12.9-30.9,10.8c-5.3-0.9-9.4-7.7-7.3-12.7
		c4.3-10.7,20.1-18.3,31.9-14.4C207.3,197.6,209.7,201.7,212.3,204.1z"/>
	<path d="M391.1,190c-0.5,2.5-0.1,5.7-1.6,7.5c-6.5,8.1-14.8,12.3-25.8,9.6c-5.4-1.4-9.2-6.9-8.3-12.4c1.4-8.2,8.2-10.3,14.7-12.9
		c7.5-3,13.7-0.6,19,4.5C390.1,187.3,390.4,188.7,391.1,190z"/>
	<path d="M107.8,282.1c-2.5-1-5.2-1.7-7.6-3c-4.7-2.7-5.9-10.6-2.6-14.4c6-6.7,13.7-10.2,22.6-8.5c3.6,0.7,7.4,4.1,9.5,7.2
		c2.4,3.7,0.3,7.7-3,10.8C121.5,279.1,115.6,282.7,107.8,282.1z"/>
	<path d="M46.8,323.2c-0.8,3.8-0.4,7.3-2,8.8c-4,3.6-8.5,7.4-13.5,9.2c-9.9,3.6-21-1-21-7.6c0-7.8,4.7-12.8,11.8-15.1
		c5.1-1.7,10.9-2.8,16.1-2.1C41.5,316.9,44.3,321.1,46.8,323.2z"/>
	<path d="M309.1,201.9c-2.8,4-4.5,8.2-7.6,10.5c-7.2,5.3-15.7,6.8-24.4,4.1c-4-1.2-8.7-3.1-8.2-8.1c0.4-3.8,1.9-8.4,4.6-10.7
		c8-6.9,17.9-9.1,28-5.1C304.7,193.8,306.4,198.5,309.1,201.9z"/>
	<path d="M214.4,335.8c-1.9-2-6.1-4.5-6.8-7.7c-0.8-3.4,0.5-8.6,2.9-11.2c7.4-7.8,17.2-9.3,27.5-6.6c2.4,0.6,6.1,2.7,6.3,4.4
		c0.5,3.8,0.4,8.6-1.7,11.5C236.8,334,227.7,336.7,214.4,335.8z"/>
	<path d="M97.5,325.3c3.1,2,7.1,3.7,9.7,6.6c2.8,3.1-0.3,12.1-4.6,14.5c-3.6,2-7.5,3.9-11.5,4.8c-7.3,1.7-14.3,0.5-19.4-5.2
		c-4.1-4.6,3.1-15.2,12.5-18.2C88.3,326.7,92.6,326.3,97.5,325.3z"/>
	<path d="M257.5,266.4c-2.4-0.4-5.2-0.7-7.9-1.5c-5-1.6-6.9-9.8-3.7-13.6c7.2-8.5,16-10.5,26.4-7.2c5.2,1.6,6.9,9.2,3.5,13.4
		C271.1,263.2,265.3,266.3,257.5,266.4z"/>
	<path d="M323.5,250.2c-0.6,2.5-0.3,5.7-1.9,7.4c-2.7,2.9-6.1,5.7-9.8,7.2c-7.4,3.1-15.6-0.2-17.2-6.3c-1.5-5.8,3.6-12.9,11.4-14.5
		c3.9-0.8,8.4-0.6,12.3,0.4C320.5,245,321.9,248.2,323.5,250.2z"/>
	<path d="M395.1,252.8c-2,8.8-9.4,13.4-18.6,11.6c-4.8-1-9.6-7-9.3-11.7c0.5-7.6,9.4-15.4,16.9-14.8
		C390.2,238.4,396.5,247,395.1,252.8z"/>
</g>
</svg>
