<?xml version="1.0" encoding="utf-8"?>
<!-- Generator: Adobe Illustrator 21.0.2, SVG Export Plug-In . SVG Version: 6.00 Build 0)  -->
<svg version="1.1" id="Layer_1" xmlns="http://www.w3.org/2000/svg" xmlns:xlink="http://www.w3.org/1999/xlink" x="0px" y="0px"
	 viewBox="0 0 500 500" style="enable-background:new 0 0 500 500;" xml:space="preserve">
<g>
	<path d="M278.9,45.3c22.4-3.6,38.6,7.9,53,22.7c3.5,3.6,6.4,9.6,6.6,14.5c0.4,10.8,0.5,22.1-2.4,32.4c-4,13.9-10.9,27-16.9,41.2
		c2.7,4.7,4.6,9.9,8.1,13.5c12.9,12.7,26.4,24.9,40.3,38c7.2-2.5,14.4-4,20.5-7.3c22.2-12.1,42.7-5.8,62.4,5.5
		c18.1,10.4,24.2,34.2,15.3,52.6c-7.4,15.3-18.6,27.1-31.8,37.1c-5.8,4.4-12.3,7.9-18.6,11.5c-19.6,11.4-40,18.6-62.6,9.5
		c-7.7-3.1-14.5-1.8-20.8,2c-15.5,9.6-30,21.2-46.1,29.5c-17.5,9.1-28.6,20.9-32.7,40.8c-5.1,24.7-22.9,40.9-42.5,55.2
		c-10.8,7.9-23.5,9.9-36.2,11.3c-13.6,1.5-30-8-36-20.7c-8.8-18.4-15.5-38.6-12.2-58.3c3.3-19.8-1.3-35.4-10.5-51.6
		c-4.4-7.8-6.7-16.9-10.3-26.4c-7.9-3.7-16.1-7.7-24.4-11.4c-11.3-4.9-17-14.6-18.3-25.6C60,236,58.5,210.5,57.1,185
		c-0.7-11.6,4.8-21.3,12.7-29.4c22.9-23.6,50.5-27.8,79.9-12.1c6.4,3.4,12,8.4,18.2,12.2c11.5,7,37.1-3.1,35.4-21.3
		c-2.5-26.7,9.7-45.7,31-59.9c15.2-10.1,30.7-19.7,46.1-29.5L278.9,45.3z M233.3,323.3c25.4,1.3,47.1-7.8,64.4-24.9
		c24.4-24.2,24.6-58.4-3.8-80.5c-25.3-19.7-54.8-27.6-86.7-25.7c-15.7,0.9-26.4,9.2-33.8,23.5c-8.6,16.5-11.1,34.4-15.4,52
		c-2.9,11.7-0.6,16.1,9.2,22.4c10.6,6.9,21.2,13.7,31.3,21.2C209,319.1,220.4,323.7,233.3,323.3z M256.6,146.6
		c18.2,1.5,26.5-4.9,30.2-23.1c1.6-7.8-0.5-14.6-6.2-19.6c-5.3-4.7-20-2.4-25.1,3c-7.5,8-14.4,16.6-13.9,28.3
		c0.1,2.9,2.4,6.6,4.8,8.4C249.1,145.5,253.1,145.7,256.6,146.6z M414.5,258c-0.5-1.7-0.6-3.6-1.5-5c-8.8-13.5-32.6-14.1-40.3-0.8
		c-1.5,2.6-1.7,7-0.6,9.8c3.4,9.1,11.3,13.3,20.3,14.5C402,277.8,414.1,267,414.5,258z M183.1,369.1c-2,2.7-5.3,5.1-5.9,8.1
		c-2.3,11.4,1.2,21.2,11.5,27.2c2.3,1.4,7.4,1.1,9.5-0.6c8.2-6.5,11.1-16.9,7.6-23.3C202.4,374.2,189.9,367.9,183.1,369.1z
		 M116.2,188.7c-2.1,2.6-5.9,5-6.1,7.7c-0.4,6.9,0.7,13.9,1.6,20.8c0.2,1.6,2,4.3,2.8,4.2c3.1-0.4,6.8-0.9,9.1-2.8
		c5.6-4.7,8.5-11,8-18.6C131.3,194.4,121.4,187,116.2,188.7z"/>
	<path d="M275.8,248c-3.6,6.8-5.4,14.8-10.3,18.9c-8.1,6.7-17.9,11.6-27.7,15.9c-8.3,3.6-23-5.4-25.7-14.5
		c-4.6-15.3-0.4-30.1,11.6-38.3c7.4-5,15.4-9.1,23.3-13.4c5.5-2.9,15.6,0.1,18.7,6.4C269.6,230.7,272.3,239.1,275.8,248z M235.3,245
		c-1,1.2-3,2.5-3.1,3.8c-0.2,3.4,0,7,0.9,10.3c0.4,1.4,2.6,3.2,4,3.2c1.4,0,3.4-1.6,4.2-3.1c2.8-5,3-10.1-1.7-14.2
		C238.8,244.4,236.8,245,235.3,245z"/>
</g>
</svg>
