<?xml version="1.0" encoding="utf-8"?>
<!-- Generator: Adobe Illustrator 21.0.2, SVG Export Plug-In . SVG Version: 6.00 Build 0)  -->
<svg version="1.1" id="Layer_1" xmlns="http://www.w3.org/2000/svg" xmlns:xlink="http://www.w3.org/1999/xlink" x="0px" y="0px"
	 viewBox="0 0 500 500" style="enable-background:new 0 0 500 500;" xml:space="preserve">
<path d="M69.9,169.8c18.5,11.2,39,16.3,61.9,9.3c13.3-4,27.5-3.8,41-1c39.1,8.3,79.1,10.7,118.5,17c25.8,4.1,52.1,5,78.2,6.9
	c24.8,1.8,49.2,5.6,73.2,12c12.6,3.4,22.1,10.7,29.5,21.3c4.1,5.9,5.5,12.4,4.4,19.5c-2.6,17.5-10.7,31.3-27.2,38.8
	c-10,4.5-20.1,9.7-30.7,11.7c-40.7,7.7-81.6,13.1-123.2,6.7c-14.9-2.3-30.2-2.6-45.2-3.9c-8.2-0.7-17.2,0.2-24.5-2.8
	c-17.3-7.3-35-5.8-52.8-6.1c-15.1-0.2-30.2-1.1-45.1-2.9c-2.8-0.3-6.8-5.9-6.9-9.2c-0.1-3.2,3.5-8,6.6-9.3c4.9-2,10.7-2.3,16.2-2.3
	c29.1,0.3,57.5-5.8,86.2-9.4c5.2-0.7,10.2-3.8,15.1-6c1.1-0.5,1.7-2.1,2.4-3.2c1.3-2.3,0.5-4.9-2.7-6.1c-7.7-2.9-15.5-6-23.5-7.8
	c-16.1-3.6-32.4-6.1-48.5-9.7c-24.3-5.5-48.7-9.3-73.6-10.2c-16.6-0.6-32.7-2.7-47-13c-6.4-4.6-15.5-5.3-23-8.6
	c-3.7-1.6-6.2-5.2-5.9-9.9c0.3-4.4,1.9-8.4,6.1-9.8C42.5,177.6,55.7,174,69.9,169.8z M268,222.2c9,3.3,16.1,6.8,23.4,9.9
	c9,3.8,18.3,7.3,22.6,16.7c4.7,10.4-2.3,18.3-7.6,26.2c-0.6,0.9-0.9,3-0.4,3.5c1.8,1.7,4.1,4.2,6,4c19.1-2.2,38.3-4.2,57.2-7.7
	c10.7-1.9,21.2-5.8,31.3-10c6.4-2.6,11.1-7.8,12.2-15.4c0.8-5.6-4.2-11.4-12.6-13.8c-4-1.1-7.9-2.4-12-3.1
	c-31.2-5.2-62.4-10.4-93.7-15.1C286.6,216.3,278.3,215.1,268,222.2z"/>
</svg>
