<?xml version="1.0" encoding="utf-8"?>
<!-- Generator: Adobe Illustrator 21.0.2, SVG Export Plug-In . SVG Version: 6.00 Build 0)  -->
<svg version="1.1" id="Layer_1" xmlns="http://www.w3.org/2000/svg" xmlns:xlink="http://www.w3.org/1999/xlink" x="0px" y="0px"
	 viewBox="0 0 500 500" style="enable-background:new 0 0 500 500;" xml:space="preserve">
<path d="M436.9,250.9c3.7,8,8.8,17,12.2,26.7c5.4,15.5,0.7,29.3-10.6,40.4c-10.7,10.6-23.5,17.5-38.5,20.5
	c-14.2,2.9-26-4.9-26.1-18.6c0-6.3,1.3-12.6,1.6-18.9c0.4-9.7-5.5-16-13.2-19.7c-19.1-9.2-39.2-15.5-60.6-16.7
	c-8.9-0.5-16.6,2.7-22.4,9.5c-4.1,4.8-7.2,10.5-11.4,15.2c-56.7,63.9-127.3,87.5-211.1,72.2c-10.8-2-18.7-9.3-25.1-18.1
	c-6.8-9.3-3.8-28.7,5.7-34.3c10.9-6.4,22.3-11.8,33.4-18c5.7-3.2,6.5-12,1.5-15.7c-6.8-5.1-14.5-9-20.7-14.6
	c-28.7-26.4-22.8-67,11.9-83.6c1.9-0.9,3.8-1.8,5.8-2.5c33.8-12.9,68.9-20.7,105.1-20.6c25,0,45.3,9.6,53.5,36
	c1.2,4,2.9,7.9,4.8,11.7c0.9,1.8,2.5,3.7,4.3,4.4c3.7,1.6,8.3,4.2,11.4,3.1c5.7-2,11.3-5.6,15.7-9.9c25-25,55.3-36.6,90.1-41.8
	c42.4-6.4,79.4,4.6,114.4,26.6c3.4,2.1,5.5,6.3,8.2,9.6c4.7,5.6,4.4,18-1.1,23.3c-6,5.8-12,11.8-19,16.3
	C449.7,237.9,441.2,240.2,436.9,250.9z M134.9,319.2c2.3,0,4.5,0.5,6.5-0.1c22.7-6.3,41.3-18.8,55-38c3.7-5.1,5-11.2,1.5-17.1
	c-3.3-5.5-17.2-8.2-22.6-4.5c-3.4,2.3-7.5,4.1-10,7.1c-12,14-23.7,28.4-35.2,42.8c-0.9,1.1-0.2,4.2,0.6,5.8
	C131.5,317,133.6,318.1,134.9,319.2z M109.1,221.6c-0.4,6.1,11,17.3,16.7,16c10.4-2.4,19.5-7.5,25.3-16.5c1.9-3,2.6-8.3,1.3-11.4
	c-1.4-3.1-5.8-6.1-9.3-6.9c-13.4-2.7-24.3,2-32.2,13.2C109.8,217.6,109.7,219.7,109.1,221.6z M368.7,217.6
	c-2.6-5.1-3.5-10.5-6.2-11.6c-11.2-4.5-19.5-0.8-25.3,10.2c-0.8,1.5-0.7,5.2-0.2,5.4c5.6,1.8,11.6,4.8,17.1,4.1
	C359.4,225.1,364,220.4,368.7,217.6z"/>
</svg>
