<?xml version="1.0" encoding="utf-8"?>
<!-- Generator: Adobe Illustrator 21.0.2, SVG Export Plug-In . SVG Version: 6.00 Build 0)  -->
<svg version="1.1" id="Layer_1" xmlns="http://www.w3.org/2000/svg" xmlns:xlink="http://www.w3.org/1999/xlink" x="0px" y="0px"
	 viewBox="0 0 500 500" style="enable-background:new 0 0 500 500;" xml:space="preserve">
<path d="M249,301.3c-8.9,7.2-17.8,12.8-24.6,20.3c-21,23.1-42.8,45.6-59.9,72.1c-3.9,6-13.9,6.4-22.7,2c-4.4-2.2-6.7-5.9-4.6-10.3
	c3.5-7.4,7.1-15.1,12.2-21.3c22.5-27.5,45.7-54.3,68.2-81.8c12.4-15.1,11.3-20.8-4.2-35.9c-4.4-4.3-9.2-8.5-12.5-13.6
	c-2-3.2-3.3-8.5-2-11.8c5.9-15.5,13-30.5,19.1-46c4.8-12.2-3.2-26.4-15.8-29c-42.9-8.9-78.2,4.8-106.4,37.3
	c-15.2,17.5-9.4,51.7,11.6,66.9c11.6,8.4,25,14.2,37.4,21.5c1.3,0.8,1.6,3.5,2,5.3c1.1,5-1,8.2-6,9.6c-2,0.6-3.8,1.8-5.8,2.1
	C93.3,296,50.2,264,36.8,235.3c-5.6-11.9-4.9-25.1,0.8-36.5c5.5-11.1,12.4-22,21-30.8c41.1-42.9,93.3-61.4,151.3-65.7
	c17.3-1.3,32.7,5.7,48,12.5c11,4.9,21.3,24.2,19.6,36.9c-2,14.3-5.5,28.5-7.3,42.8c-0.4,3.3,2.4,9,5.2,10.2c3,1.3,8.9,0.1,11.6-2.3
	c17.1-15.2,34.3-30.5,50.3-46.9c19.6-20.2,43.8-31.6,69.9-39.9c11.3-3.6,25.7,1.3,33.2,11.8c3.6,5,5.6,11.2,9.1,16.3
	c5.6,8.4,18.4,12,18.7,23.7c0.5,16.2-10.9,26.9-21.8,36.3c-15.7,13.6-32.3,26.4-49.4,38.2c-15.4,10.6-32.1,19.4-48.1,29.3
	c-11.6,7.2-14,21.2-4.9,32.4c13.1,16.2,27.2,31.6,40.4,47.8c5.2,6.3,9,13.7,13.1,20.9c0.9,1.6,1.2,5,0.2,6c-2.7,2.7-6.2,6.3-9.4,6.3
	c-6,0-12.9-0.7-17.7-3.8c-21.1-13.5-41.5-28.1-62.4-41.9C289.1,326.5,269.7,314.5,249,301.3z M296.6,262.1c2.5,0,4.9,0.7,6.6-0.1
	c35.2-17.8,69.2-37.6,99.8-62.7c4.6-3.8,8.4-9.3,10.9-14.8c1.1-2.4-1.1-8.4-3.5-10c-13.6-8.4-28.1-9.1-40.3,1.9
	c-26.2,23.6-51.6,48.1-77.2,72.4c-1.3,1.3-2.1,3.5-2.4,5.4c-0.2,1.7,0.1,4,1.1,5.3C292.8,260.9,295.1,261.4,296.6,262.1z"/>
</svg>
