<?xml version="1.0" encoding="utf-8"?>
<!-- Generator: Adobe Illustrator 21.0.2, SVG Export Plug-In . SVG Version: 6.00 Build 0)  -->
<svg version="1.1" id="Layer_1" xmlns="http://www.w3.org/2000/svg" xmlns:xlink="http://www.w3.org/1999/xlink" x="0px" y="0px"
	 viewBox="0 0 500 500" style="enable-background:new 0 0 500 500;" xml:space="preserve">
<g>
	<path d="M238.8,231.8c-3.6-5.1-7.1-10.3-10.9-15.3c-5.5-7.2-12.8-10.8-21.8-8.9c-16.4,3.5-32.5,7.9-49,11c-6,1.1-12.5,0.4-18.6-0.8
		c-3.7-0.8-9.2-3.5-10-6.4c-1.6-5.7-2.1-12.8,0.1-18c2.3-5.3,7.7-9.8,12.8-13.2c13.9-9.4,28.7-17.4,42.4-27
		c39.5-27.7,79.1-55.4,110.2-93c13-15.8,30.9-21.3,50-22.6c5.1-0.3,12.5,4.1,15.3,8.5c2.8,4.4,3.4,12.6,1.2,17.5
		c-3.2,7.4-8.8,14.4-15,19.6c-14.4,12.1-30.5,22.4-44.6,34.8c-11.9,10.4-29.8,15.2-33.7,33.7c12.1,14,31.9,7.1,46.1,17.1
		c5.4,3.8,16,0.3,24.1-0.1c8.3-0.4,16.5-1.8,24.7-1.3c3.5,0.2,9.3,3.8,9.7,6.5c0.9,5.7,1.1,13.7-2.2,17.5
		c-6.8,7.6-15.8,13.5-24.4,19.3c-26,17.6-52.3,34.8-78.5,52.2c-10.2,6.7-11.4,15.1-8.3,26.7c3.2,11.9-2.7,21.2-12.5,25.1
		c-25.4,10-51.4,18.2-78.7,20.6c-6,0.5-12.4-0.8-18.4-2.3c-6.6-1.7-10.1-7.3-10.5-13.8c-0.2-3.9,0.6-9,3-11.6
		c5.6-6,12-11.6,18.9-16.1c19.3-12.6,39.2-24.2,58.4-36.9c8.6-5.7,16.5-12.9,18.7-24.1c20.2,1.3,26.8-14.4,34.8-28.1
		c0.5-0.8-0.7-3.3-1.7-4.2c-1.4-1.2-3.4-2.2-5.3-2.3c-11.1-0.6-19.1,5.8-25.7,13.4C233.7,216.1,235.2,224.2,238.8,231.8z"/>
	<path d="M145.9,446.7c-3.5-0.8-5.5-1.3-7.6-1.6c-7.6-1.2-13.5-13.5-9.4-19.7c2.2-3.4,3.8-7.5,6.6-10.3c4.4-4.4,9.3-8.4,14.6-11.8
		c50.9-32.5,99.9-67.8,148.8-103.4c8.3-6.1,17.7-11.6,27.4-14.5c7.3-2.2,16.1-0.4,24.2,0.4c5.5,0.5,7.9,10.8,4.5,15.3
		c-12.9,17-30.8,27.7-48.2,39.2c-19.1,12.6-38.5,24.8-57.4,37.6c-3.1,2.1-6.2,6.2-6.5,9.6c-0.3,3.5,2.7,7.3,4.3,11
		c5.7,13.2,3.2,22-6.3,26.1C210,437.6,178.8,448.9,145.9,446.7z"/>
</g>
</svg>
