<?xml version="1.0" encoding="utf-8"?>
<!-- Generator: Adobe Illustrator 21.0.2, SVG Export Plug-In . SVG Version: 6.00 Build 0)  -->
<svg version="1.1" id="Layer_1" xmlns="http://www.w3.org/2000/svg" xmlns:xlink="http://www.w3.org/1999/xlink" x="0px" y="0px"
	 viewBox="0 0 500 500" style="enable-background:new 0 0 500 500;" xml:space="preserve">
<g>
	<path d="M240.3,241.2c8.2,9,16.5,18.1,25.5,28.1c38.1,2.3,76.8,4.4,115.5,2.7c26.3-1.2,52.6-2,78.9-2.3c5.2-0.1,10.7,2.2,15.6,4.5
		c1.8,0.8,3,4.6,3.1,7.1c0.1,2.5-0.8,6.1-2.6,7.4c-3.2,2.4-7.3,4.6-11.2,4.8c-15.2,0.9-30.4,1.3-45.6,1.3
		c-37.4,0-74.8-0.3-112.3-0.4c-10.2,0-19.1,2.7-24.6,12.4c-3.6,6.4-9.1,10-16.6,10.7c-39,3.6-77.5,2.4-114.9-10.6
		c-5.1-1.8-9.7-5.2-14.4-8c-3.9-2.4-4.1-12.4-0.2-14.5c3.6-2,7.1-4.2,10.9-5.5c15.6-5.5,31.5-10.4,47.1-16.3
		c9.9-3.7,12.1-8.3,11.5-19.2c-0.5-9.5-1-18.9-1.5-28c-3.1-1.6-5.4-3.8-7.9-3.9c-33.2-1.7-66.3-3.1-99.5,2.6
		c-20.4,3.5-41.3,3.9-62.1,5.2c-3.9,0.2-8.3-1.1-11.9-2.9c-1.9-0.9-2.8-4.1-3.7-6.4c-0.3-0.8,0.8-2.6,1.7-3.2
		c3.5-2.1,7-4.3,10.8-5.7c14.6-5.2,29.9-5.3,45.2-5.6c20.8-0.4,41.4-2.1,62.1-5c17.8-2.5,35.9-2.3,53.9-3.3
		c8.7-0.5,16.4-2.6,20.3-11.5c4.5-10.4,13.5-13.1,23.7-13.7c2.8-0.2,5.7-0.7,8.3-0.1c22.7,5.7,46.4,7.7,68.2,17.3
		c9.1,4,10.5,18.4,1.6,23.9c-8.1,5.1-16.8,9.5-25.7,13c-12.9,5-26.3,8.7-39.2,13.5C245.6,231.6,240.8,234.7,240.3,241.2z"/>
	<path d="M403.4,183.3c3.5,0.7,6.2,1.2,8.8,1.8c6.6,1.5,10.8,11.3,6.2,15.8c-5.7,5.6-12.2,10.4-18.7,15.1
		c-3.5,2.5-11.9,0.5-14.9-3.3c-4.2-5.4-7.5-11.3-4.9-18.5c2-5.7,6.9-8,12.3-9.2C396.2,184,400.2,183.7,403.4,183.3z"/>
	<path d="M31.1,292.9c-3.1-0.9-5.7-1.6-8.4-2.4c-3.7-1-5.6-7.2-3.2-10.3c1.7-2.1,3.3-4.8,5.5-6c7.6-3.9,15.7-4.6,24.2-3.1
		c3.8,0.7,8.4,5.1,7.3,8.6c-1.1,3.7-3.2,7.4-5.8,10.1c-1.6,1.7-5.1,1.8-7.8,2.1C38.9,292.5,34.7,292.7,31.1,292.9z"/>
</g>
</svg>
