<?xml version="1.0" encoding="utf-8"?>
<!-- Generator: Adobe Illustrator 21.0.2, SVG Export Plug-In . SVG Version: 6.00 Build 0)  -->
<svg version="1.1" id="Layer_1" xmlns="http://www.w3.org/2000/svg" xmlns:xlink="http://www.w3.org/1999/xlink" x="0px" y="0px"
	 viewBox="0 0 500 500" style="enable-background:new 0 0 500 500;" xml:space="preserve">
<path d="M259.3,205.6c18.1-22.2,41.8-20.4,65.8-14.7c4.7,1.1,9.3,5.7,12.2,9.9c6,8.7,10.8,18.1,15.6,26.4c21.1,12,43.5,3.9,64.4,8.4
	c13.6,2.9,25,9,34.6,19.1c11,11.6,12.3,32.7,2.1,44.5c-5.2,6.1-10.3,13-16.9,17c-38.9,23.9-78.1,47.3-117.6,70.1
	c-3.1,1.8-11-0.7-13.7-3.8c-2.6-3-3.6-10.9-1.5-14c4.5-6.5,11-11.8,17.5-16.5c13.1-9.5,27.1-17.7,39.9-27.4
	c6.2-4.7,10.6-11.8,15.9-17.7c3.4-3.8,0.4-19.9-4-22c-17.4-8.2-35.7-14-54.4-6.2c-27.2,11.4-54.8,22.3-79,40
	c-24.2,17.7-52,28.1-80.1,37.6c-28.1,9.5-53.4,1.3-76-15.3c-16.6-12.2-21.5-32.3-20.5-50.5c1.8-32.7,17.2-61.2,38.4-86
	c2.4-2.7,11-2.8,14.9-0.7c3.5,1.9,6.8,9.1,5.9,12.9c-6,26.7-21,48.9-37.5,71c2.7,7.3,4.8,15.1,8.3,22.2c7.2,14.8,9.6,16.8,25.3-0.7
	l-0.2-4.3c16,14.3,33.7,14,52.4,6.3c13.3-5.5,21.5-18.6,18.8-31.1c-1.7-7.9-4-15.6-6.2-23.3c-7.1-24.8-2.1-48.3,10.2-69.8
	c24.6-43.2,59.7-75.2,107.2-91.9c3.3-1.2,10.6,2.8,12.8,6.4c2,3.2,1.3,11.1-1.3,13.6c-9.8,9.1-21,16.5-31.4,24.9
	c-20.7,16.8-28.9,38-21.6,64.2"/>
</svg>
