<?xml version="1.0" encoding="utf-8"?>
<!-- Generator: Adobe Illustrator 21.0.2, SVG Export Plug-In . SVG Version: 6.00 Build 0)  -->
<svg version="1.1" id="Layer_1" xmlns="http://www.w3.org/2000/svg" xmlns:xlink="http://www.w3.org/1999/xlink" x="0px" y="0px"
	 viewBox="0 0 500 500" style="enable-background:new 0 0 500 500;" xml:space="preserve">
<g>
	<path d="M193.1,283.1c-7.7-34.3,3.5-65.2,6.2-97.6c7.9-2.2,14.8-4.3,21.7-6c3-0.7,9.5,4.4,9.7,7.4c0.9,13.1,1.7,26.2,2.6,39.2
		c0.4,4.9,7,10.9,12.2,10.4c14.5-1.4,29-2.9,43.4-5c20.2-2.9,40.2-7.4,60.7-3.1c0.8,0.2,1.7,1.9,1.7,2.9c0,1.3-0.4,3.5-1.3,3.9
		c-5.3,2.2-10.6,5.1-16.1,5.6c-30.8,2.7-60.4,10.4-89.8,19.2c-6.8,2-12.9,6.5-19.2,10c-1.1,0.6-2.2,3.5-2,3.6c2.1,1.5,4.2,3,6.6,3.9
		c1.3,0.5,2.9,0.4,4.3,0.1c48.8-9.3,97.5-19,146.3-27.9c25.8-4.7,51.8-8.5,77.8-12.3c5.7-0.8,12-0.8,17.3,0.9c3.1,1,6.9,6.3,6.8,9.6
		c-0.2,3.3-4.3,6.9-7.5,9.4c-2.1,1.6-5.6,1.6-8.4,1.7c-67.6,2-133.4,15.5-198.8,31.4c-9.9,2.4-20.1,3.6-30.1,5.9
		c-28.3,6.6-57.2,11.6-83.1,26.1c-2.3,1.3-5.7,1-8.5,0.9c-1.3,0-3.3-1.3-3.5-2.3c-0.6-2.5-1.5-6.2-0.2-7.7c2.8-3.1,6.6-5.4,10.3-7.5
		C164.7,298.7,179.6,295.9,193.1,283.1z"/>
	<path d="M166.5,224.3c-9.6,6.5-20.2,14.2-31.3,21.1C98.2,268.9,61.9,293.4,30.1,324c-1,1-2.4,2.2-3.6,2.3c-2.6,0.2-6,0.5-7.8-0.9
		c-1.9-1.5-3.7-5.5-2.9-7.3c2.3-5.2,5.2-10.6,9.2-14.5c15.6-15.5,33.8-27.8,51.5-40.7c15.3-11.1,29.9-23.3,44.4-35.6
		c6-5.1,6.9-12.6,4.9-20.1c-1.2-4.2-3-8.2-4.8-12.2c-4-9.4-0.4-16.8,5.9-23.7c7.9-8.7,16.4-16.7,27.7-20.9
		c13.4-5,23.1,1.2,22.7,16.6c-0.1,4.4-0.5,8.8-1.3,13C173,194.1,169.9,208.3,166.5,224.3z"/>
	<path d="M334.9,197.6c-5-0.5-15.1-0.9-25-2.6c-3.8-0.6-7.3-3.9-10.7-6.2c-1.1-0.7-2.4-2.7-2.1-3.4c1-2.4,2.3-6.2,4.2-6.6
		c24.2-5.3,48.2-6.9,70.5,7.1c1,0.6,2.2,2.5,1.9,3.3c-1,2.4-2.1,5.2-4.1,6.4c-2.2,1.4-5.4,1.9-8.2,1.9
		C354.2,197.7,347,197.6,334.9,197.6z"/>
</g>
</svg>
