<?xml version="1.0" encoding="utf-8"?>
<!-- Generator: Adobe Illustrator 21.0.2, SVG Export Plug-In . SVG Version: 6.00 Build 0)  -->
<svg version="1.1" id="Layer_1" xmlns="http://www.w3.org/2000/svg" xmlns:xlink="http://www.w3.org/1999/xlink" x="0px" y="0px"
	 viewBox="0 0 500 500" style="enable-background:new 0 0 500 500;" xml:space="preserve">
<path d="M467.8,136.1c-6.6-2.2-13.7-5.3-20.4-4.8c-45.1,3.5-90.5,3.4-135.2,11.3c-12.5,2.2-25.1,4.4-37.8,1.6
	c-3.4-0.7-5.5-2.8-4.6-6.1c2.5-9.5,5.1-19,8.3-28.2c4.6-13.3,9.8-26.4,14.6-39.7c0.3-0.9-0.9-3-1.8-3.4c-2.3-0.9-5.6-2.3-7.3-1.3
	c-3.6,2.1-6.6,5.3-9.4,8.5c-12.6,14.1-19.5,31-24.3,49c-3,11-6,21.8-16.6,30.1c-10,2.3-20.9,5.6-32.1,7.3
	c-11.2,1.7-22.6,1.9-33.9,2.7c-8.5,0.6-17.2,0.2-25.4,1.9c-8.2,1.7-16,5.2-23.9,8.2c-3.2,1.2-4.4,7.1-2.6,11.1
	c2.5,5.7,8.3,9.5,13.1,8.4c19.3-4.4,38.5-9.4,58-13c9.6-1.8,19.7-1.6,29.5-1.1c4.1,0.2,6.9,4.5,7.1,9.1c0.1,2.5-0.3,5-0.5,7.5
	c0,0.2,0,0.4-0.1,0.7c0,0.1,0,0.2,0,0.2c-28.1,3.3-56.6,4.9-84.3,10.5c-33.3,6.7-66.8,12.9-99,24.3c-4,1.4-7.9,3-9.1,7.8
	c-0.9,3.5,4.7,8,11.2,10.7c9.2,3.8,16.4-0.7,24.2-3.9c1.7-0.7,5.6,0.7,6.7,2.3c1.4,2.1,1.8,5.6,1,8c-1.2,3.9-3.5,7.6-5.6,11.1
	c-2.9,4.8-8.6,9.4-8.6,14.1c0,15.5-9.9,26.2-16.3,38.6c-3.8,7.5-7.4,15.2-10.5,23c-2.4,6.1,3.9,15.2,10.4,15.8
	c2.8,0.3,5.6,0.9,8.4,0.8c25.5-1,51.1-1.2,76.1-7.1c4.1-1,8.4-0.8,12.6-1.2c8.4-0.6,13.7,5.5,11.6,13c-3.4,12.2-6.9,24.3-9.8,36.7
	c-0.4,1.8,2.3,4.9,4.3,6.7c2.7,2.4,9.9,0.7,11.1-2.1c1.1-2.5,2.5-5,3.4-7.6c4.1-12.1,7.5-24.4,12.2-36.2c3.2-8,8.3-14.5,18.3-15.7
	c12.6-1.5,25.1-4.4,37.8-5.8c35.2-4,70.4-8.1,105.7-11c18.9-1.6,36-7.1,52.2-16.4c2.4-1.4,4.8-3,6.8-5c3-3,6.3-6.7,4.2-11.1
	c-1.7-3.5-4.8-6.5-7.9-9c-2.1-1.7-5.1-2.9-7.7-3.1c-15.5-1-31.1-2.6-46.6-2.2c-17,0.5-34,2.6-50.8,4.9c-21.2,2.9-42.4,2.8-63.6,0.6
	c-5.1-0.5-9.7-7.7-7.7-12.8c8.4-20.9,17-41.7,25.5-62.6c0,0,0-0.1,0-0.1c0.3,0,0.6,0,0.9,0c29.3,1.2,58.5-0.9,87.4-5.5
	c14-2.3,27.9-3.4,42-3.3c14.1,0.1,28.2-0.4,42.3-0.8c13.9-0.4,28,1,43.2-1.4c-2.4-1.6-3.4-2.8-4.4-2.9
	c-67.6-0.9-135.2-1.7-202.8-2.5h0c0.2-1.4,0.4-2.8,0.6-4.2c1.9-14,8.7-21.9,23.6-25.8c47-12.3,95.3-13.8,143.1-19.6
	c15.2-1.8,31,1.3,46.5,2.1c1.4,0.1,3.2,0.1,4.2-0.6c2.2-1.6,4.9-3.4,5.6-5.7C471.4,140.5,469.4,136.6,467.8,136.1z M198,272.8
	c-11.7,12.6-8.3,25.8-3.5,39.6c0.7,1.9-1.1,6.6-2.6,7.1c-8,2.3-16.2,4.1-24.4,5.3c-4,0.6-8.6,0.3-12.4-1c-6.9-2.4-13.4-4.4-21.4-0.7
	c-3.3-0.2-7.6,0.1-11.5-1c-1.9-0.6-4.9-5-4.4-5.7c7.3-11,9-23.3,10.6-36c1.1-8.6,5.7-16.5,15.4-18.1c10.3-1.7,18-8.1,26.8-12.5
	c12.1-6,22.2-2.1,27.1,11.1C199,264.4,200,270.6,198,272.8z M210.6,219.7c-0.8,2.5-1.4,6.2-3.2,7c-15.2,6.7-30.5,13.6-46.3,18.8
	c-9.1,2.9-19.3,2.6-28.4,3.7c-6.3-0.9-12.2-0.7-17.1-2.8c-3.2-1.4-5.5-5.9-6.9-9.6c-0.6-1.5,1.8-5.8,3.7-6.4
	c30.4-10.5,61-20.3,94-16.4C209.9,214.4,211.5,216.6,210.6,219.7z"/>
</svg>
