<?xml version="1.0" encoding="utf-8"?>
<!-- Generator: Adobe Illustrator 21.0.2, SVG Export Plug-In . SVG Version: 6.00 Build 0)  -->
<svg version="1.1" id="Layer_1" xmlns="http://www.w3.org/2000/svg" xmlns:xlink="http://www.w3.org/1999/xlink" x="0px" y="0px"
	 viewBox="0 0 500 500" style="enable-background:new 0 0 500 500;" xml:space="preserve">
<g>
	<path d="M322,227c-9.7-1-17.2-1.3-24.5-2.6c-9.6-1.6-15.9-13.2-10.9-20.6c10-15,20.1-30,31.2-44.2c5.6-7.1,14-11.8,23.3-12.5
		c4.1-0.3,9,0.9,12.3,3.1c3.7,2.6,4.7,7.4,2.4,12.1c-2.7,5.3-5.8,10.5-7.7,16.1c-0.6,1.6,2.7,6.6,3.9,6.5
		c16.4-1.8,32.9-3.6,49.1-6.7c16.3-3.1,32.2-8,48.5-11.1c8.7-1.6,17.8-1.2,26.7-1.4c1.2,0,3.7,1.7,3.6,2.3c-0.4,2.7-1,7-2.6,7.6
		c-12.8,4.3-25.7,8.1-38.7,11.5c-16,4.2-32.3,7.5-48.2,12.1c-7,2.1-13.3,6.5-20.8,10.3c2.6,2.2,4,4.3,5.7,4.7
		c7.8,1.6,14.5,4,15.7,13.3c0.9,6.8-2.8,11.4-7.6,15.2c-3.5,2.8-7.5,5.1-10.8,8.1c-4.6,4.2-7.4,9.6-7.5,15.9
		c-0.1,10.5,0.4,21.1,0.5,31.6c0,4.5,0,9.1-1.1,13.4c-0.6,2.5-3.1,4.7-5.2,6.7c-2.6,2.4-9.6,0.4-12.1-2.8c-1.8-2.4-4.6-4.3-5.6-7
		c-5.8-15.5-12.1-30.9-16.4-46.9C322.6,251.8,323.2,241,322,227z"/>
	<path d="M27,293.6c-3.5,1.1-6.9,0.6-7.8-2.8c-0.6-2.2,1.2-6,3.1-7.5c4.7-3.6,9.9-6.8,15.3-9.3c52-24,101.9-52,151.6-80.4
		c3.9-2.2,8.3-4.1,11.4-7.2c4.1-4.1,8.9-8.8,10.4-14.1c3.3-11.6,6-23.3,12.1-33.8c5.2-9,20.7-14,32.1-9.8c2.2,0.8,5.2,4.6,4.9,6.6
		c-2.4,16.2-5.1,32.5-8.5,48.5c-0.9,4-4.2,8-7.3,11c-3.2,3.1-7.2,5.8-11.4,7.2c-57.5,18.8-110,48.6-164.8,73.5
		C54.6,281.5,40.8,287.5,27,293.6z"/>
	<path d="M286.7,336.6c0.4,13.4,1,26.8,0.9,40.2c0,2.2-3.3,4.6-5.4,6.5c-2.8,2.5-8.8,0.1-11.1-3.8c-1.5-2.5-3.6-4.8-4.7-7.5
		c-3.4-8.3-6.6-16.7-9.6-25.1c-3.5-9.9-7-19.7-9.8-29.8c-3.6-12.8-11.1-20.6-24.9-21.9c-2.6-0.2-6.6-2.4-7.2-4.5
		c-1.1-3.9-1.8-10.7,0.3-12.3c16.2-12.4,35.1-15.8,55-12.1c3.7,0.7,8.7,4.6,9.7,8.1c2.5,8.5,3.5,17.5,4.2,26.4
		c1,11.9,1.2,23.9,1.8,35.8C286.2,336.6,286.5,336.6,286.7,336.6z"/>
	<path d="M161.8,272c2.2,0.3,6.6,0.8,11,1.4c2.9,0.4,7.8,7.5,6.9,10.4c-8.4,27.1-15.2,54.6-18.6,82.9c-0.6,5.1-6,9.9-10,14.1
		c-1,1-6.4,0-7.4-1.6c-2.3-3.6-3.9-8.1-4.2-12.4c-1.2-14.9-1.8-29.8-2.4-44.8c-0.5-11.6-6-19-16.3-24.5c-8.5-4.6-7.5-12-0.2-16.5
		C132.7,273.5,146,272.8,161.8,272z"/>
</g>
</svg>
